<svg width="55" height="54" viewBox="0 0 55 54" fill="none" xmlns="http://www.w3.org/2000/svg">
<path d="M27.3853 2.29495e-06C12.6305 -0.00612636 0.67981 12.2634 0.67981 27.4073C0.67981 39.3827 8.15568 49.5624 18.567 53.3009C19.9691 53.6625 19.7543 52.639 19.7543 51.9403V47.1906C11.658 48.1651 11.3298 42.6616 10.7869 41.7423C9.68905 39.8179 7.09367 39.3276 7.8693 38.4083C9.71291 37.4338 11.5923 38.6534 13.7701 41.9568C15.3452 44.3531 18.4179 43.9486 19.9751 43.5502C20.3152 42.11 21.0431 40.823 22.0454 39.824C13.6567 38.2796 10.1604 33.0212 10.1604 26.77C10.1604 23.7363 11.1329 20.9477 13.0422 18.6985C11.825 14.9907 13.1555 11.816 13.3345 11.3441C16.801 11.0254 20.4047 13.8937 20.6851 14.1204C22.654 13.575 24.9033 13.2869 27.4211 13.2869C29.9509 13.2869 32.2062 13.5872 34.193 14.1388C34.8672 13.6117 38.2084 11.148 41.4302 11.4483C41.6032 11.9202 42.9039 15.0213 41.7583 18.6801C43.6915 20.9355 44.6759 23.7485 44.6759 26.7883C44.6759 33.0518 41.1557 38.3163 32.7431 39.8362C33.4637 40.5641 34.0358 41.4322 34.4261 42.3898C34.8164 43.3474 35.0171 44.3752 35.0163 45.4133V52.3081C35.0641 52.8596 35.0163 53.4051 35.9113 53.4051C46.4778 49.7463 54.0849 39.493 54.0849 27.4135C54.0849 12.2634 42.1283 2.29495e-06 27.3853 2.29495e-06Z" fill="#24292E"/>
</svg>
