<svg width="150" height="184" viewBox="0 0 150 184" fill="none" xmlns="http://www.w3.org/2000/svg">
<path d="M58.704 169.176C58.704 171.107 58.176 172.563 57.12 173.544C56.0747 174.515 54.6133 175 52.736 175H49.552V163.576H53.072C54.224 163.576 55.2213 163.789 56.064 164.216C56.9067 164.643 57.5573 165.272 58.016 166.104C58.4747 166.925 58.704 167.949 58.704 169.176ZM57.184 169.224C57.184 167.699 56.8053 166.584 56.048 165.88C55.3013 165.165 54.24 164.808 52.864 164.808H50.992V173.768H52.544C55.6373 173.768 57.184 172.253 57.184 169.224ZM68.5035 170.696C68.5035 172.115 68.1408 173.213 67.4155 173.992C66.7008 174.771 65.7302 175.16 64.5035 175.16C63.7462 175.16 63.0688 174.989 62.4715 174.648C61.8848 174.296 61.4208 173.789 61.0795 173.128C60.7382 172.456 60.5675 171.645 60.5675 170.696C60.5675 169.277 60.9248 168.184 61.6395 167.416C62.3542 166.648 63.3248 166.264 64.5515 166.264C65.3302 166.264 66.0128 166.44 66.5995 166.792C67.1968 167.133 67.6608 167.635 67.9915 168.296C68.3328 168.947 68.5035 169.747 68.5035 170.696ZM62.0235 170.696C62.0235 171.709 62.2208 172.515 62.6155 173.112C63.0208 173.699 63.6608 173.992 64.5355 173.992C65.3995 173.992 66.0342 173.699 66.4395 173.112C66.8448 172.515 67.0475 171.709 67.0475 170.696C67.0475 169.683 66.8448 168.888 66.4395 168.312C66.0342 167.736 65.3942 167.448 64.5195 167.448C63.6448 167.448 63.0102 167.736 62.6155 168.312C62.2208 168.888 62.0235 169.683 62.0235 170.696ZM74.175 175.16C73.4177 175.16 72.7403 175.005 72.143 174.696C71.5563 174.387 71.0923 173.907 70.751 173.256C70.4203 172.605 70.255 171.773 70.255 170.76C70.255 169.704 70.431 168.845 70.783 168.184C71.135 167.523 71.6097 167.037 72.207 166.728C72.815 166.419 73.503 166.264 74.271 166.264C74.7083 166.264 75.1297 166.312 75.535 166.408C75.9403 166.493 76.271 166.6 76.527 166.728L76.095 167.896C75.839 167.8 75.5403 167.709 75.199 167.624C74.8577 167.539 74.5377 167.496 74.239 167.496C72.5537 167.496 71.711 168.579 71.711 170.744C71.711 171.779 71.9137 172.573 72.319 173.128C72.735 173.672 73.3483 173.944 74.159 173.944C74.6283 173.944 75.039 173.896 75.391 173.8C75.7537 173.704 76.0843 173.587 76.383 173.448V174.696C76.095 174.845 75.775 174.957 75.423 175.032C75.0817 175.117 74.6657 175.16 74.175 175.16ZM79.8145 162.84V169.192C79.8145 169.363 79.8038 169.587 79.7825 169.864C79.7718 170.141 79.7612 170.381 79.7505 170.584H79.8145C79.8785 170.499 79.9745 170.376 80.1025 170.216C80.2305 170.056 80.3585 169.896 80.4865 169.736C80.6252 169.565 80.7425 169.427 80.8385 169.32L83.5745 166.424H85.2225L81.7505 170.088L85.4625 175H83.7665L80.7905 171L79.8145 171.848V175H78.4225V162.84H79.8145ZM90.2814 166.264C91.0174 166.264 91.6467 166.424 92.1694 166.744C92.7027 167.064 93.108 167.517 93.3854 168.104C93.6734 168.68 93.8174 169.357 93.8174 170.136V170.984H87.9454C87.9667 171.955 88.212 172.696 88.6814 173.208C89.1614 173.709 89.828 173.96 90.6814 173.96C91.2254 173.96 91.7054 173.912 92.1214 173.816C92.548 173.709 92.9854 173.56 93.4334 173.368V174.6C92.996 174.792 92.564 174.931 92.1374 175.016C91.7107 175.112 91.204 175.16 90.6174 175.16C89.8067 175.16 89.0867 174.995 88.4574 174.664C87.8387 174.333 87.3534 173.843 87.0014 173.192C86.66 172.531 86.4894 171.725 86.4894 170.776C86.4894 169.837 86.644 169.032 86.9534 168.36C87.2734 167.688 87.716 167.171 88.2814 166.808C88.8574 166.445 89.524 166.264 90.2814 166.264ZM90.2654 167.416C89.5934 167.416 89.06 167.635 88.6654 168.072C88.2814 168.499 88.052 169.096 87.9774 169.864H92.3454C92.3347 169.139 92.164 168.552 91.8334 168.104C91.5027 167.645 90.98 167.416 90.2654 167.416ZM100.001 166.264C100.161 166.264 100.331 166.275 100.513 166.296C100.705 166.307 100.87 166.328 101.009 166.36L100.833 167.656C100.694 167.624 100.539 167.597 100.369 167.576C100.209 167.555 100.054 167.544 99.9046 167.544C99.4673 167.544 99.0566 167.667 98.6726 167.912C98.2886 168.147 97.9793 168.483 97.7446 168.92C97.5206 169.347 97.4086 169.848 97.4086 170.424V175H96.0006V166.424H97.1526L97.3126 167.992H97.3766C97.654 167.523 98.0113 167.117 98.4486 166.776C98.886 166.435 99.4033 166.264 100.001 166.264Z" fill="#222222" fill-opacity="0.6"/>
<path d="M0 72.8723C0 32.6261 32.626 0 72.8723 0H77.1277C117.374 0 150 32.6261 150 72.8723C150 113.119 117.374 145.745 77.1277 145.745H72.8723C32.626 145.745 0 113.119 0 72.8723Z" fill="#24292E"/>
<path d="M79.7685 69.8266H69.2345V60.2823H79.7685V69.8266ZM79.7685 37H69.2345V46.7532H79.7685V37ZM92.2307 60.2662H81.6968V69.8105H92.2307V60.2662ZM67.3221 48.6813H56.7882V58.3381H67.3221V48.6813ZM79.7685 48.6813H69.2345V58.3381H79.7685V48.6813ZM123.88 64.7492C121.586 63.1906 116.295 62.6282 112.231 63.3995C111.705 59.5432 109.57 56.185 105.681 53.1642L103.45 51.6699L101.968 53.9194C99.0356 58.3863 98.2388 65.7454 101.378 70.5979C99.9918 71.353 97.2666 72.3814 93.665 72.3171H24.3894C23.003 80.4796 25.3137 91.0844 31.4014 98.3631C37.3139 105.417 46.1745 109 57.7603 109C82.8442 109 101.41 97.3508 110.095 76.1895C113.506 76.2537 120.868 76.2055 124.645 68.9268C124.884 68.5251 125.697 66.8058 126 66.1792L123.88 64.7492ZM42.4294 60.2662H31.9114V69.8105H42.4454V60.2662H42.4294ZM54.8758 60.2662H44.3418V69.8105H54.8758V60.2662ZM67.3221 60.2662H56.7882V69.8105H67.3221V60.2662ZM54.8758 48.6813H44.3418V58.3381H54.8758V48.6813Z" fill="white"/>
</svg>
