<svg width="150" height="183" viewBox="0 0 150 183" fill="none" xmlns="http://www.w3.org/2000/svg">
<path d="M0 72.8723C0 32.6261 32.626 0 72.8723 0H77.1277C117.374 0 150 32.6261 150 72.8723C150 113.119 117.374 145.745 77.1277 145.745H72.8723C32.626 145.745 0 113.119 0 72.8723Z" fill="#24292E"/>
<path d="M39.4406 121.795L42.6147 118.475C49.0628 111.732 50.6506 122.088 59.9806 122.088C64.6125 122.088 67.5334 120.327 67.5334 113.48V73.9588C67.5334 70.0664 70.6888 66.9109 74.5813 66.9109C78.4738 66.9109 81.6293 70.0664 81.6293 73.9588V113.673C81.6293 127.859 73.0711 134.316 60.5847 134.316C49.3084 134.316 42.7629 128.642 39.44 121.793" fill="white"/>
<path d="M93.0946 125.745C90.5789 123.028 91.848 118.885 95.0753 117.07C98.2615 115.277 102.139 116.501 104.939 118.851C107.392 120.911 110.479 122.186 114.659 122.186C120.5 122.186 124.224 119.349 124.224 115.435C124.224 110.74 120.398 109.076 113.954 106.338L110.43 104.869C100.26 100.663 93.5144 95.38 93.5144 84.2271C93.5144 73.9544 101.569 66.1274 114.156 66.1274C120.914 66.1274 126.24 67.8525 130.437 72.0993C132.887 74.578 131.84 78.5528 128.884 80.3976C125.788 82.3295 121.952 80.8237 118.738 79.0956C117.413 78.3834 115.92 78.0643 114.155 78.0643C110.027 78.0643 107.409 80.608 107.409 83.9339C107.409 88.0427 110.027 89.7068 116.068 92.2505L119.592 93.7176C131.574 98.7076 138.32 103.794 138.32 115.24C138.32 127.568 128.352 134.318 114.96 134.318C105.072 134.318 97.8264 130.855 93.0946 125.745Z" fill="white"/>
<path d="M37.936 177.04C37.68 177.04 37.456 177.019 37.264 176.976C37.072 176.944 36.9013 176.896 36.752 176.832V175.616C36.9227 175.659 37.104 175.696 37.296 175.728C37.488 175.76 37.6907 175.776 37.904 175.776C38.1707 175.776 38.4213 175.723 38.656 175.616C38.9013 175.509 39.0987 175.323 39.248 175.056C39.3973 174.789 39.472 174.416 39.472 173.936V162.576H40.912V173.824C40.912 174.923 40.64 175.733 40.096 176.256C39.552 176.779 38.832 177.04 37.936 177.04ZM46.983 165.28C48.0283 165.28 48.8017 165.509 49.303 165.968C49.8043 166.427 50.055 167.157 50.055 168.16V174H49.031L48.759 172.784H48.695C48.3217 173.253 47.927 173.6 47.511 173.824C47.1057 174.048 46.5403 174.16 45.815 174.16C45.0363 174.16 44.391 173.957 43.879 173.552C43.367 173.136 43.111 172.491 43.111 171.616C43.111 170.763 43.447 170.107 44.119 169.648C44.791 169.179 45.8257 168.923 47.223 168.88L48.679 168.832V168.32C48.679 167.605 48.5243 167.109 48.215 166.832C47.9057 166.555 47.4683 166.416 46.903 166.416C46.455 166.416 46.0283 166.485 45.623 166.624C45.2177 166.752 44.839 166.901 44.487 167.072L44.055 166.016C44.4283 165.813 44.871 165.643 45.383 165.504C45.895 165.355 46.4283 165.28 46.983 165.28ZM48.663 169.808L47.399 169.856C46.3323 169.899 45.591 170.069 45.175 170.368C44.7697 170.667 44.567 171.088 44.567 171.632C44.567 172.112 44.711 172.464 44.999 172.688C45.2977 172.912 45.6763 173.024 46.135 173.024C46.8603 173.024 47.463 172.827 47.943 172.432C48.423 172.027 48.663 171.408 48.663 170.576V169.808ZM54.5918 174L51.3438 165.424H52.8478L54.6718 170.48C54.7571 170.715 54.8478 170.976 54.9438 171.264C55.0398 171.552 55.1251 171.829 55.1998 172.096C55.2744 172.352 55.3278 172.571 55.3598 172.752H55.4238C55.4664 172.571 55.5251 172.347 55.5998 172.08C55.6851 171.813 55.7758 171.536 55.8718 171.248C55.9784 170.96 56.0691 170.704 56.1438 170.48L57.9678 165.424H59.4718L56.2078 174H54.5918ZM64.0768 165.28C65.1221 165.28 65.8954 165.509 66.3968 165.968C66.8981 166.427 67.1488 167.157 67.1488 168.16V174H66.1248L65.8528 172.784H65.7888C65.4154 173.253 65.0208 173.6 64.6048 173.824C64.1994 174.048 63.6341 174.16 62.9088 174.16C62.1301 174.16 61.4848 173.957 60.9728 173.552C60.4608 173.136 60.2048 172.491 60.2048 171.616C60.2048 170.763 60.5408 170.107 61.2128 169.648C61.8848 169.179 62.9194 168.923 64.3168 168.88L65.7728 168.832V168.32C65.7728 167.605 65.6181 167.109 65.3088 166.832C64.9994 166.555 64.5621 166.416 63.9968 166.416C63.5488 166.416 63.1221 166.485 62.7168 166.624C62.3114 166.752 61.9328 166.901 61.5807 167.072L61.1488 166.016C61.5221 165.813 61.9648 165.643 62.4768 165.504C62.9888 165.355 63.5221 165.28 64.0768 165.28ZM65.7568 169.808L64.4928 169.856C63.4261 169.899 62.6848 170.069 62.2688 170.368C61.8634 170.667 61.6608 171.088 61.6608 171.632C61.6608 172.112 61.8048 172.464 62.0928 172.688C62.3914 172.912 62.7701 173.024 63.2288 173.024C63.9541 173.024 64.5568 172.827 65.0368 172.432C65.5168 172.027 65.7568 171.408 65.7568 170.576V169.808ZM76.4695 170.944C76.4695 171.957 76.1015 172.747 75.3655 173.312C74.6295 173.877 73.6375 174.16 72.3895 174.16C71.7495 174.16 71.1575 174.112 70.6135 174.016C70.0695 173.92 69.6162 173.787 69.2535 173.616V172.24C69.6375 172.411 70.1122 172.565 70.6775 172.704C71.2535 172.843 71.8455 172.912 72.4535 172.912C73.3068 172.912 73.9468 172.747 74.3735 172.416C74.8108 172.085 75.0295 171.637 75.0295 171.072C75.0295 170.699 74.9495 170.384 74.7895 170.128C74.6295 169.872 74.3522 169.637 73.9575 169.424C73.5735 169.2 73.0348 168.965 72.3415 168.72C71.3708 168.368 70.6348 167.936 70.1335 167.424C69.6428 166.912 69.3975 166.213 69.3975 165.328C69.3975 164.72 69.5522 164.203 69.8615 163.776C70.1708 163.339 70.5975 163.003 71.1415 162.768C71.6962 162.533 72.3308 162.416 73.0455 162.416C73.6748 162.416 74.2508 162.475 74.7735 162.592C75.2962 162.709 75.7708 162.864 76.1975 163.056L75.7495 164.288C75.3548 164.117 74.9228 163.973 74.4535 163.856C73.9948 163.739 73.5148 163.68 73.0135 163.68C72.2988 163.68 71.7602 163.835 71.3975 164.144C71.0348 164.443 70.8535 164.843 70.8535 165.344C70.8535 165.728 70.9335 166.048 71.0935 166.304C71.2535 166.56 71.5148 166.789 71.8775 166.992C72.2402 167.195 72.7308 167.413 73.3495 167.648C74.0215 167.893 74.5868 168.16 75.0455 168.448C75.5148 168.725 75.8668 169.061 76.1015 169.456C76.3468 169.851 76.4695 170.347 76.4695 170.944ZM82.0188 174.16C81.2614 174.16 80.5841 174.005 79.9868 173.696C79.4001 173.387 78.9361 172.907 78.5948 172.256C78.2641 171.605 78.0988 170.773 78.0988 169.76C78.0988 168.704 78.2748 167.845 78.6268 167.184C78.9788 166.523 79.4534 166.037 80.0508 165.728C80.6588 165.419 81.3468 165.264 82.1148 165.264C82.5521 165.264 82.9734 165.312 83.3788 165.408C83.7841 165.493 84.1148 165.6 84.3708 165.728L83.9388 166.896C83.6828 166.8 83.3841 166.709 83.0428 166.624C82.7014 166.539 82.3814 166.496 82.0828 166.496C80.3974 166.496 79.5548 167.579 79.5548 169.744C79.5548 170.779 79.7574 171.573 80.1628 172.128C80.5788 172.672 81.1921 172.944 82.0028 172.944C82.4721 172.944 82.8828 172.896 83.2348 172.8C83.5974 172.704 83.9281 172.587 84.2268 172.448V173.696C83.9388 173.845 83.6188 173.957 83.2668 174.032C82.9254 174.117 82.5094 174.16 82.0188 174.16ZM90.2663 165.264C90.4263 165.264 90.5969 165.275 90.7783 165.296C90.9703 165.307 91.1356 165.328 91.2743 165.36L91.0983 166.656C90.9596 166.624 90.8049 166.597 90.6343 166.576C90.4743 166.555 90.3196 166.544 90.1703 166.544C89.7329 166.544 89.3223 166.667 88.9383 166.912C88.5543 167.147 88.2449 167.483 88.0103 167.92C87.7863 168.347 87.6743 168.848 87.6743 169.424V174H86.2663V165.424H87.4183L87.5783 166.992H87.6423C87.9196 166.523 88.2769 166.117 88.7143 165.776C89.1516 165.435 89.6689 165.264 90.2663 165.264ZM93.5956 162.208C93.809 162.208 93.9956 162.283 94.1556 162.432C94.3263 162.571 94.4116 162.795 94.4116 163.104C94.4116 163.403 94.3263 163.627 94.1556 163.776C93.9956 163.925 93.809 164 93.5956 164C93.361 164 93.1636 163.925 93.0036 163.776C92.8436 163.627 92.7636 163.403 92.7636 163.104C92.7636 162.795 92.8436 162.571 93.0036 162.432C93.1636 162.283 93.361 162.208 93.5956 162.208ZM94.2836 165.424V174H92.8756V165.424H94.2836ZM101.081 165.264C102.137 165.264 102.985 165.632 103.625 166.368C104.275 167.104 104.601 168.213 104.601 169.696C104.601 171.157 104.275 172.267 103.625 173.024C102.985 173.781 102.131 174.16 101.065 174.16C100.403 174.16 99.854 174.037 99.4166 173.792C98.99 173.536 98.654 173.243 98.4086 172.912H98.3126C98.334 173.093 98.3553 173.323 98.3766 173.6C98.398 173.877 98.4086 174.117 98.4086 174.32V177.84H97.0006V165.424H98.1526L98.3446 166.592H98.4086C98.6646 166.219 99.0006 165.904 99.4166 165.648C99.8326 165.392 100.387 165.264 101.081 165.264ZM100.825 166.448C99.95 166.448 99.3313 166.693 98.9686 167.184C98.6166 167.675 98.43 168.421 98.4086 169.424V169.696C98.4086 170.752 98.5793 171.568 98.9206 172.144C99.2726 172.709 99.918 172.992 100.857 172.992C101.379 172.992 101.806 172.848 102.137 172.56C102.478 172.272 102.729 171.883 102.889 171.392C103.059 170.891 103.145 170.32 103.145 169.68C103.145 168.699 102.953 167.915 102.569 167.328C102.195 166.741 101.614 166.448 100.825 166.448ZM109.708 173.008C109.922 173.008 110.14 172.992 110.364 172.96C110.588 172.917 110.77 172.875 110.908 172.832V173.904C110.759 173.979 110.546 174.037 110.268 174.08C109.991 174.133 109.724 174.16 109.468 174.16C109.02 174.16 108.604 174.085 108.22 173.936C107.847 173.776 107.543 173.504 107.308 173.12C107.074 172.736 106.956 172.197 106.956 171.504V166.512H105.74V165.84L106.972 165.28L107.532 163.456H108.364V165.424H110.844V166.512H108.364V171.472C108.364 171.995 108.487 172.384 108.732 172.64C108.988 172.885 109.314 173.008 109.708 173.008Z" fill="#222222" fill-opacity="0.6"/>
</svg>
