<svg width="150" height="184" viewBox="0 0 150 184" fill="none" xmlns="http://www.w3.org/2000/svg">
<path d="M65.24 163.576V170.968C65.24 171.757 65.08 172.472 64.76 173.112C64.44 173.741 63.9493 174.243 63.288 174.616C62.6373 174.979 61.8053 175.16 60.792 175.16C59.3733 175.16 58.2907 174.776 57.544 174.008C56.808 173.229 56.44 172.205 56.44 170.936V163.576H57.88V170.984C57.88 171.912 58.1253 172.632 58.616 173.144C59.1173 173.656 59.8693 173.912 60.872 173.912C61.9067 173.912 62.6533 173.64 63.112 173.096C63.5813 172.541 63.816 171.832 63.816 170.968V163.576H65.24ZM72.1911 166.264C73.2151 166.264 73.9885 166.515 74.5111 167.016C75.0338 167.507 75.2951 168.307 75.2951 169.416V175H73.9031V169.512C73.9031 168.136 73.2631 167.448 71.9831 167.448C71.0338 167.448 70.3778 167.715 70.0151 168.248C69.6525 168.781 69.4711 169.549 69.4711 170.552V175H68.0631V166.424H69.1991L69.4071 167.592H69.4871C69.7645 167.144 70.1485 166.813 70.6391 166.6C71.1298 166.376 71.6471 166.264 72.1911 166.264ZM78.6738 163.208C78.8871 163.208 79.0738 163.283 79.2338 163.432C79.4044 163.571 79.4898 163.795 79.4898 164.104C79.4898 164.403 79.4044 164.627 79.2338 164.776C79.0738 164.925 78.8871 165 78.6738 165C78.4391 165 78.2418 164.925 78.0818 164.776C77.9218 164.627 77.8418 164.403 77.8418 164.104C77.8418 163.795 77.9218 163.571 78.0818 163.432C78.2418 163.283 78.4391 163.208 78.6738 163.208ZM79.3618 166.424V175H77.9538V166.424H79.3618ZM84.9427 174.008C85.1561 174.008 85.3748 173.992 85.5988 173.96C85.8228 173.917 86.0041 173.875 86.1428 173.832V174.904C85.9934 174.979 85.7801 175.037 85.5028 175.08C85.2254 175.133 84.9588 175.16 84.7028 175.16C84.2548 175.16 83.8388 175.085 83.4548 174.936C83.0814 174.776 82.7774 174.504 82.5428 174.12C82.3081 173.736 82.1908 173.197 82.1908 172.504V167.512H80.9748V166.84L82.2068 166.28L82.7668 164.456H83.5988V166.424H86.0788V167.512H83.5988V172.472C83.5988 172.995 83.7214 173.384 83.9668 173.64C84.2228 173.885 84.5481 174.008 84.9427 174.008ZM86.516 166.424H88.02L89.876 171.304C90.036 171.731 90.18 172.141 90.308 172.536C90.436 172.92 90.532 173.288 90.596 173.64H90.66C90.724 173.373 90.8253 173.027 90.964 172.6C91.1027 172.163 91.2467 171.725 91.396 171.288L93.14 166.424H94.66L90.964 176.184C90.6653 176.995 90.276 177.64 89.796 178.12C89.3267 178.6 88.676 178.84 87.844 178.84C87.588 178.84 87.364 178.824 87.172 178.792C86.98 178.771 86.8147 178.744 86.676 178.712V177.592C86.7933 177.613 86.932 177.635 87.092 177.656C87.2627 177.677 87.4387 177.688 87.62 177.688C88.1107 177.688 88.5053 177.549 88.804 177.272C89.1133 176.995 89.3533 176.627 89.524 176.168L89.972 175.032L86.516 166.424Z" fill="#222222" fill-opacity="0.6"/>
<path d="M0 72.8723C0 32.6261 32.626 0 72.8723 0H77.1277C117.374 0 150 32.6261 150 72.8723C150 113.119 117.374 145.745 77.1277 145.745H72.8723C32.626 145.745 0 113.119 0 72.8723Z" fill="#24292E"/>
<path d="M115 60.7378L104.715 23L66.3199 33.1117L60.6321 42.9675L49.1005 42.8828L21 70.503L49.1044 98.129L60.6301 98.0444L66.3258 107.888L104.715 118L115 80.2741L109.156 70.503L115 60.7378ZM61.5612 44.5543L90.9317 37.1339L74.0726 65.8428H40.3485L61.5612 44.5543ZM61.5612 96.4575L40.3485 75.171H74.0726L90.9317 103.878L61.5612 96.4575ZM99.1558 99.2138L82.2869 70.503L99.1519 41.7901L107.296 70.503L99.1558 99.2138Z" fill="white"/>
</svg>
