<svg width="150" height="185" viewBox="0 0 150 185" fill="none" xmlns="http://www.w3.org/2000/svg">
<path d="M62.488 167.264C63.512 167.264 64.2853 167.515 64.808 168.016C65.3307 168.507 65.592 169.307 65.592 170.416V176H64.2V170.512C64.2 169.136 63.56 168.448 62.28 168.448C61.3307 168.448 60.6747 168.715 60.312 169.248C59.9493 169.781 59.768 170.549 59.768 171.552V176H58.36V167.424H59.496L59.704 168.592H59.784C60.0613 168.144 60.4453 167.813 60.936 167.6C61.4267 167.376 61.944 167.264 62.488 167.264ZM72.3306 167.264C73.3866 167.264 74.2346 167.632 74.8746 168.368C75.5253 169.104 75.8506 170.213 75.8506 171.696C75.8506 173.157 75.5253 174.267 74.8746 175.024C74.2346 175.781 73.3813 176.16 72.3146 176.16C71.6533 176.16 71.104 176.037 70.6666 175.792C70.24 175.536 69.904 175.243 69.6586 174.912H69.5626C69.584 175.093 69.6053 175.323 69.6266 175.6C69.648 175.877 69.6586 176.117 69.6586 176.32V179.84H68.2506V167.424H69.4026L69.5946 168.592H69.6586C69.9146 168.219 70.2506 167.904 70.6666 167.648C71.0826 167.392 71.6373 167.264 72.3306 167.264ZM72.0746 168.448C71.2 168.448 70.5813 168.693 70.2186 169.184C69.8666 169.675 69.68 170.421 69.6586 171.424V171.696C69.6586 172.752 69.8293 173.568 70.1706 174.144C70.5226 174.709 71.168 174.992 72.1066 174.992C72.6293 174.992 73.056 174.848 73.3866 174.56C73.728 174.272 73.9786 173.883 74.1386 173.392C74.3093 172.891 74.3946 172.32 74.3946 171.68C74.3946 170.699 74.2026 169.915 73.8186 169.328C73.4453 168.741 72.864 168.448 72.0746 168.448ZM87.5024 167.264C88.473 167.264 89.1984 167.515 89.6784 168.016C90.1584 168.507 90.3984 169.307 90.3984 170.416V176H89.0064V170.48C89.0064 169.125 88.425 168.448 87.2624 168.448C86.4304 168.448 85.833 168.688 85.4704 169.168C85.1184 169.648 84.9424 170.347 84.9424 171.264V176H83.5504V170.48C83.5504 169.125 82.9637 168.448 81.7904 168.448C80.9264 168.448 80.329 168.715 79.9984 169.248C79.6677 169.781 79.5024 170.549 79.5024 171.552V176H78.0944V167.424H79.2304L79.4384 168.592H79.5184C79.785 168.144 80.1424 167.813 80.5904 167.6C81.049 167.376 81.5344 167.264 82.0464 167.264C83.3904 167.264 84.265 167.744 84.6704 168.704H84.7504C85.0384 168.213 85.4277 167.851 85.9184 167.616C86.4197 167.381 86.9477 167.264 87.5024 167.264Z" fill="#222222" fill-opacity="0.6"/>
<path d="M0 72.8723C0 32.6261 32.626 0 72.8723 0H77.1277C117.374 0 150 32.6261 150 72.8723C150 113.119 117.374 145.745 77.1277 145.745H72.8723C32.626 145.745 0 113.119 0 72.8723Z" fill="#24292E"/>
<path d="M75 78.7143H68.6667V65.8571H75V78.7143ZM132 53V91.5714H75V98H49.6667V91.5714H18V53H132ZM49.6667 59.4286H24.3333V85.1429H37V65.8571H43.3333V85.1429H49.6667V59.4286ZM81.3333 59.4286H56V91.5714H68.6667V85.1429H81.3333V59.4286ZM125.667 59.4286H87.6667V85.1429H100.333V65.8571H106.667V85.1429H113V65.8571H119.333V85.1429H125.667V59.4286Z" fill="white"/>
</svg>
