<svg width="150" height="185" viewBox="0 0 150 185" fill="none" xmlns="http://www.w3.org/2000/svg">
<path d="M0 72.8723C0 32.6261 32.626 0 72.8723 0H77.1277C117.374 0 150 32.6261 150 72.8723C150 113.119 117.374 145.745 77.1277 145.745H72.8723C32.626 145.745 0 113.119 0 72.8723Z" fill="#24292E"/>
<path d="M74.6847 32C64.3503 32 55.9727 41.781 55.9727 53.8465C55.9727 62.2143 60.0023 69.4817 65.9195 73.1512L59.0578 76.3313L40.7979 84.8001C39.0339 85.6822 38.1535 87.1779 38.1535 89.2948V109.405C38.2986 111.919 39.8072 114.263 42.2531 114.302H107.215C110.007 114.06 111.42 111.81 111.448 109.405V89.2948C111.448 87.1779 110.567 85.6822 108.803 84.8001L91.2045 76.3313L83.8907 72.8663C89.5651 69.1142 93.3968 62.0039 93.3968 53.8466C93.3967 41.781 85.019 32 74.6847 32ZM44.5023 39.6824C40.055 39.8513 36.5304 41.7757 33.8526 44.842C30.8906 48.5338 29.4466 52.917 29.4187 57.2774C29.6006 63.7252 32.4856 69.8292 37.6216 73.022L17.1163 82.5509C15.705 83.0801 15 84.3148 15 86.2553V102.395C15.1102 104.536 16.2216 106.335 18.3055 106.365H31.9339V89.2948C32.1594 84.7309 34.3026 81.0419 38.1535 79.2417L51.7782 72.76C52.8366 72.1425 53.8513 71.3032 54.8215 70.2448C49.2039 61.5772 48.4238 51.1957 52.0442 42.0647C49.6895 40.6236 47.0432 39.6975 44.5023 39.6824ZM105.361 39.6824C102.453 39.7433 99.7649 40.8143 97.557 42.3268C101.079 51.5405 100.107 61.9284 94.9088 69.9788C96.0555 71.3018 97.2492 72.3165 98.4841 73.0222L111.581 79.2417C115.57 81.4298 117.628 85.1515 117.667 89.2949V106.366H131.691C133.997 106.167 134.98 104.327 135 102.395V86.2554C135 84.4913 134.295 83.2567 132.884 82.5509L112.641 72.8891C117.89 69.0183 120.527 63.2171 120.578 57.2774C120.438 52.5762 119.002 48.211 116.144 44.842C113.157 41.6021 109.453 39.7167 105.361 39.6824Z" fill="white"/>
<path d="M36.168 176H34.728V165.84H31.16V164.576H39.72V165.84H36.168V176ZM43.4376 167.264C44.1736 167.264 44.803 167.424 45.3256 167.744C45.859 168.064 46.2643 168.517 46.5416 169.104C46.8296 169.68 46.9736 170.357 46.9736 171.136V171.984H41.1016C41.123 172.955 41.3683 173.696 41.8376 174.208C42.3176 174.709 42.9843 174.96 43.8376 174.96C44.3816 174.96 44.8616 174.912 45.2776 174.816C45.7043 174.709 46.1416 174.56 46.5896 174.368V175.6C46.1523 175.792 45.7203 175.931 45.2936 176.016C44.867 176.112 44.3603 176.16 43.7736 176.16C42.963 176.16 42.243 175.995 41.6136 175.664C40.995 175.333 40.5096 174.843 40.1576 174.192C39.8163 173.531 39.6456 172.725 39.6456 171.776C39.6456 170.837 39.8003 170.032 40.1096 169.36C40.4296 168.688 40.8723 168.171 41.4376 167.808C42.0136 167.445 42.6803 167.264 43.4376 167.264ZM43.4216 168.416C42.7496 168.416 42.2163 168.635 41.8216 169.072C41.4376 169.499 41.2083 170.096 41.1336 170.864H45.5016C45.491 170.139 45.3203 169.552 44.9896 169.104C44.659 168.645 44.1363 168.416 43.4216 168.416ZM52.4049 167.28C53.4502 167.28 54.2235 167.509 54.7249 167.968C55.2262 168.427 55.4769 169.157 55.4769 170.16V176H54.4529L54.1809 174.784H54.1169C53.7435 175.253 53.3489 175.6 52.9329 175.824C52.5275 176.048 51.9622 176.16 51.2369 176.16C50.4582 176.16 49.8129 175.957 49.3009 175.552C48.7889 175.136 48.5329 174.491 48.5329 173.616C48.5329 172.763 48.8689 172.107 49.5409 171.648C50.2129 171.179 51.2475 170.923 52.6449 170.88L54.1009 170.832V170.32C54.1009 169.605 53.9462 169.109 53.6369 168.832C53.3275 168.555 52.8902 168.416 52.3249 168.416C51.8769 168.416 51.4502 168.485 51.0449 168.624C50.6395 168.752 50.2609 168.901 49.9089 169.072L49.4769 168.016C49.8502 167.813 50.2929 167.643 50.8049 167.504C51.3169 167.355 51.8502 167.28 52.4049 167.28ZM54.0849 171.808L52.8209 171.856C51.7542 171.899 51.0129 172.069 50.5969 172.368C50.1915 172.667 49.9889 173.088 49.9889 173.632C49.9889 174.112 50.1329 174.464 50.4209 174.688C50.7195 174.912 51.0982 175.024 51.5569 175.024C52.2822 175.024 52.8849 174.827 53.3649 174.432C53.8449 174.027 54.0849 173.408 54.0849 172.576V171.808ZM67.5336 167.264C68.5043 167.264 69.2296 167.515 69.7096 168.016C70.1896 168.507 70.4296 169.307 70.4296 170.416V176H69.0376V170.48C69.0376 169.125 68.4563 168.448 67.2936 168.448C66.4616 168.448 65.8643 168.688 65.5016 169.168C65.1496 169.648 64.9736 170.347 64.9736 171.264V176H63.5816V170.48C63.5816 169.125 62.995 168.448 61.8216 168.448C60.9576 168.448 60.3603 168.715 60.0296 169.248C59.699 169.781 59.5336 170.549 59.5336 171.552V176H58.1256V167.424H59.2616L59.4696 168.592H59.5496C59.8163 168.144 60.1736 167.813 60.6216 167.6C61.0803 167.376 61.5656 167.264 62.0776 167.264C63.4216 167.264 64.2963 167.744 64.7016 168.704H64.7816C65.0696 168.213 65.459 167.851 65.9496 167.616C66.451 167.381 66.979 167.264 67.5336 167.264ZM80.0868 175.984L78.6148 171.152C78.4761 170.715 78.3534 170.288 78.2468 169.872C78.1508 169.445 78.0761 169.115 78.0228 168.88H77.9588C77.9161 169.115 77.8468 169.445 77.7508 169.872C77.6548 170.288 77.5321 170.72 77.3828 171.168L75.8468 175.984H74.2468L71.8948 167.408H73.3508L74.5348 171.984C74.6521 172.443 74.7641 172.907 74.8708 173.376C74.9774 173.845 75.0521 174.235 75.0948 174.544H75.1588C75.2014 174.363 75.2494 174.139 75.3028 173.872C75.3668 173.605 75.4361 173.328 75.5108 173.04C75.5854 172.741 75.6601 172.475 75.7348 172.24L77.2548 167.408H78.7908L80.2628 172.24C80.3801 172.603 80.4921 172.997 80.5988 173.424C80.7161 173.851 80.7961 174.219 80.8388 174.528H80.9028C80.9348 174.261 81.0041 173.893 81.1108 173.424C81.2281 172.955 81.3508 172.475 81.4788 171.984L82.6788 167.408H84.1188L81.7348 175.984H80.0868ZM93.1129 171.696C93.1129 173.115 92.7502 174.213 92.0249 174.992C91.3102 175.771 90.3395 176.16 89.1129 176.16C88.3555 176.16 87.6782 175.989 87.0809 175.648C86.4942 175.296 86.0302 174.789 85.6889 174.128C85.3475 173.456 85.1769 172.645 85.1769 171.696C85.1769 170.277 85.5342 169.184 86.2489 168.416C86.9635 167.648 87.9342 167.264 89.1609 167.264C89.9395 167.264 90.6222 167.44 91.2089 167.792C91.8062 168.133 92.2702 168.635 92.6009 169.296C92.9422 169.947 93.1129 170.747 93.1129 171.696ZM86.6329 171.696C86.6329 172.709 86.8302 173.515 87.2249 174.112C87.6302 174.699 88.2702 174.992 89.1449 174.992C90.0089 174.992 90.6435 174.699 91.0489 174.112C91.4542 173.515 91.6569 172.709 91.6569 171.696C91.6569 170.683 91.4542 169.888 91.0489 169.312C90.6435 168.736 90.0035 168.448 89.1289 168.448C88.2542 168.448 87.6195 168.736 87.2249 169.312C86.8302 169.888 86.6329 170.683 86.6329 171.696ZM99.3444 167.264C99.5044 167.264 99.675 167.275 99.8564 167.296C100.048 167.307 100.214 167.328 100.352 167.36L100.176 168.656C100.038 168.624 99.883 168.597 99.7124 168.576C99.5524 168.555 99.3977 168.544 99.2484 168.544C98.811 168.544 98.4004 168.667 98.0164 168.912C97.6324 169.147 97.323 169.483 97.0884 169.92C96.8644 170.347 96.7524 170.848 96.7524 171.424V176H95.3444V167.424H96.4964L96.6564 168.992H96.7204C96.9977 168.523 97.355 168.117 97.7924 167.776C98.2297 167.435 98.747 167.264 99.3444 167.264ZM103.346 163.84V170.192C103.346 170.363 103.335 170.587 103.314 170.864C103.303 171.141 103.292 171.381 103.282 171.584H103.346C103.41 171.499 103.506 171.376 103.634 171.216C103.762 171.056 103.89 170.896 104.018 170.736C104.156 170.565 104.274 170.427 104.37 170.32L107.106 167.424H108.754L105.282 171.088L108.994 176H107.298L104.322 172L103.346 172.848V176H101.954V163.84H103.346Z" fill="#222222" fill-opacity="0.6"/>
</svg>
