<svg width="150" height="183" viewBox="0 0 150 183" fill="none" xmlns="http://www.w3.org/2000/svg">
<path d="M56.512 167.968H60.464V173.568C59.8453 173.771 59.2213 173.92 58.592 174.016C57.9627 174.112 57.248 174.16 56.448 174.16C55.264 174.16 54.2667 173.925 53.456 173.456C52.6453 172.976 52.0267 172.299 51.6 171.424C51.184 170.539 50.976 169.493 50.976 168.288C50.976 167.093 51.2107 166.059 51.68 165.184C52.1493 164.309 52.8213 163.632 53.696 163.152C54.5813 162.661 55.648 162.416 56.896 162.416C57.536 162.416 58.1387 162.475 58.704 162.592C59.28 162.709 59.8133 162.875 60.304 163.088L59.76 164.336C59.3547 164.155 58.896 164 58.384 163.872C57.8827 163.744 57.36 163.68 56.816 163.68C55.4507 163.68 54.384 164.091 53.616 164.912C52.8587 165.733 52.48 166.859 52.48 168.288C52.48 169.195 52.624 170 52.912 170.704C53.2107 171.397 53.6747 171.941 54.304 172.336C54.9333 172.72 55.76 172.912 56.784 172.912C57.2853 172.912 57.712 172.885 58.064 172.832C58.416 172.779 58.736 172.715 59.024 172.64V169.248H56.512V167.968ZM63.7206 162.208C63.934 162.208 64.1206 162.283 64.2806 162.432C64.4513 162.571 64.5366 162.795 64.5366 163.104C64.5366 163.403 64.4513 163.627 64.2806 163.776C64.1206 163.925 63.934 164 63.7206 164C63.486 164 63.2886 163.925 63.1286 163.776C62.9686 163.627 62.8886 163.403 62.8886 163.104C62.8886 162.795 62.9686 162.571 63.1286 162.432C63.2886 162.283 63.486 162.208 63.7206 162.208ZM64.4086 165.424V174H63.0006V165.424H64.4086ZM69.9896 173.008C70.203 173.008 70.4216 172.992 70.6456 172.96C70.8696 172.917 71.051 172.875 71.1896 172.832V173.904C71.0403 173.979 70.827 174.037 70.5496 174.08C70.2723 174.133 70.0056 174.16 69.7496 174.16C69.3016 174.16 68.8856 174.085 68.5016 173.936C68.1283 173.776 67.8243 173.504 67.5896 173.12C67.355 172.736 67.2376 172.197 67.2376 171.504V166.512H66.0216V165.84L67.2536 165.28L67.8136 163.456H68.6456V165.424H71.1256V166.512H68.6456V171.472C68.6456 171.995 68.7683 172.384 69.0136 172.64C69.2696 172.885 69.595 173.008 69.9896 173.008ZM73.0989 174V162.576H74.5389V172.72H79.5309V174H73.0989ZM84.5455 165.28C85.5908 165.28 86.3642 165.509 86.8655 165.968C87.3668 166.427 87.6175 167.157 87.6175 168.16V174H86.5935L86.3215 172.784H86.2575C85.8842 173.253 85.4895 173.6 85.0735 173.824C84.6682 174.048 84.1028 174.16 83.3775 174.16C82.5988 174.16 81.9535 173.957 81.4415 173.552C80.9295 173.136 80.6735 172.491 80.6735 171.616C80.6735 170.763 81.0095 170.107 81.6815 169.648C82.3535 169.179 83.3882 168.923 84.7855 168.88L86.2415 168.832V168.32C86.2415 167.605 86.0868 167.109 85.7775 166.832C85.4682 166.555 85.0308 166.416 84.4655 166.416C84.0175 166.416 83.5908 166.485 83.1855 166.624C82.7802 166.752 82.4015 166.901 82.0495 167.072L81.6175 166.016C81.9908 165.813 82.4335 165.643 82.9455 165.504C83.4575 165.355 83.9908 165.28 84.5455 165.28ZM86.2255 169.808L84.9615 169.856C83.8948 169.899 83.1535 170.069 82.7375 170.368C82.3322 170.667 82.1295 171.088 82.1295 171.632C82.1295 172.112 82.2735 172.464 82.5615 172.688C82.8602 172.912 83.2388 173.024 83.6975 173.024C84.4228 173.024 85.0255 172.827 85.5055 172.432C85.9855 172.027 86.2255 171.408 86.2255 170.576V169.808ZM91.6743 161.84V164.8C91.6743 165.163 91.6636 165.504 91.6423 165.824C91.6316 166.133 91.6156 166.379 91.5943 166.56H91.6743C91.9196 166.197 92.2556 165.893 92.6823 165.648C93.1089 165.403 93.6583 165.28 94.3303 165.28C95.3969 165.28 96.2503 165.653 96.8903 166.4C97.5409 167.136 97.8663 168.24 97.8663 169.712C97.8663 171.184 97.5409 172.293 96.8903 173.04C96.2396 173.787 95.3863 174.16 94.3303 174.16C93.6583 174.16 93.1089 174.037 92.6823 173.792C92.2556 173.547 91.9196 173.253 91.6743 172.912H91.5623L91.2743 174H90.2663V161.84H91.6743ZM94.0903 166.448C93.1836 166.448 92.5543 166.709 92.2023 167.232C91.8503 167.755 91.6743 168.565 91.6743 169.664V169.728C91.6743 170.784 91.8449 171.595 92.1863 172.16C92.5383 172.715 93.1836 172.992 94.1223 172.992C94.8903 172.992 95.4609 172.709 95.8343 172.144C96.2183 171.579 96.4103 170.763 96.4103 169.696C96.4103 167.531 95.6369 166.448 94.0903 166.448Z" fill="#222222" fill-opacity="0.6"/>
<path d="M0 72.8723C0 32.6261 32.626 0 72.8723 0H77.1277C117.374 0 150 32.6261 150 72.8723C150 113.119 117.374 145.745 77.1277 145.745H72.8723C32.626 145.745 0 113.119 0 72.8723Z" fill="#24292E"/>
<path d="M124.83 77.4255L111.193 31.2467C110.343 28.7062 108.303 27 105.576 27C102.849 27 100.634 28.5318 99.7836 31.0724L90.7509 57.8979H59.2365L50.2037 31.0849C49.353 28.5443 47.1386 27.0125 44.4113 27.0125C41.6839 27.0125 39.4695 28.7062 38.794 31.2592L25.1698 77.4255C24.6569 79.1192 25.345 80.9873 26.7086 82.0085L74.9249 118L123.304 82.0085C124.655 80.9997 125.343 79.1317 124.83 77.4255Z" fill="white"/>
</svg>
