<svg width="150" height="185" viewBox="0 0 150 185" fill="none" xmlns="http://www.w3.org/2000/svg">
<path d="M0 72.8723C0 32.6261 32.626 0 72.8723 0H77.1277C117.374 0 150 32.6261 150 72.8723C150 113.119 117.374 145.745 77.1277 145.745H72.8723C32.626 145.745 0 113.119 0 72.8723Z" fill="#24292E"/>
<path d="M74.5 85C81.4036 85 87 79.1797 87 72C87 64.8203 81.4036 59 74.5 59C67.5964 59 62 64.8203 62 72C62 79.1797 67.5964 85 74.5 85Z" fill="white"/>
<path d="M40.0507 98L37.2883 97.2893C16.7698 92.0754 5 83.2097 5 73C5 62.7833 16.7768 53.9246 37.2883 48.7107L40.0507 48.007L40.827 50.7582C42.9008 57.9613 45.5578 64.9812 48.7714 71.7475L49.3658 73L48.7714 74.2525C45.5545 81.0284 42.89 88.0507 40.827 95.2558L40.0507 98ZM36.0155 55.1137C20.4273 59.5325 10.8534 66.2733 10.8534 73C10.8534 79.7126 20.4204 86.4605 36.0155 90.8722C37.9247 84.7647 40.2325 78.7909 42.904 73C40.2132 67.1995 37.9119 61.224 36.0155 55.1137ZM109.949 98L109.18 95.2418C107.101 88.0373 104.441 81.0153 101.229 74.2454L100.634 73L101.229 71.7405C104.446 64.9786 107.096 57.9493 109.18 50.7442L109.949 48L112.712 48.7036C133.237 53.9175 145 62.7762 145 73C145 83.2167 133.23 92.0754 112.712 97.2893L109.949 98ZM107.082 73C109.879 79.0934 112.208 85.0884 113.984 90.8722C129.58 86.4605 139.154 79.7126 139.154 73C139.154 66.2733 129.587 59.5395 113.984 55.1137C112.077 61.2221 109.771 67.1972 107.082 73Z" fill="white"/>
<path d="M36.1069 54.6073L35.3402 51.8703C29.5826 31.462 31.3252 16.8435 40.1289 11.7484C48.7374 6.73054 62.5878 12.6607 77.0933 27.6442L79.073 29.6934L77.0933 31.7357C71.9413 37.1303 67.2324 42.9369 63.013 49.0982L62.2253 50.2351L60.8591 50.3474C53.4396 50.9341 46.08 52.1288 38.8533 53.9195L36.1069 54.6073ZM47.1342 15.8048C45.5728 15.8048 44.1927 16.1487 43.0286 16.8224C37.2571 20.17 36.2394 31.8269 40.2125 47.5612C46.4232 46.1787 52.6897 45.1892 59.005 44.6347C62.6611 39.4137 66.6496 34.4369 70.9454 29.7355C61.8628 20.8437 53.2892 15.8048 47.1342 15.8048ZM102.877 134.998C94.5962 134.998 83.9593 128.71 72.918 117.299L70.9454 115.257L72.918 113.222C78.0709 107.818 82.782 102.005 87.0054 95.838L87.7861 94.7151L89.1383 94.5818C96.5604 94.0055 103.923 92.8155 111.151 91.0237L113.904 90.3219L114.678 93.0659C120.408 113.46 118.672 128.1 109.882 133.195C107.748 134.413 105.33 135.035 102.877 134.998ZM79.073 115.208C88.1485 124.1 96.7292 129.145 102.877 129.145C104.446 129.145 105.826 128.795 106.983 128.128C112.761 124.773 113.786 113.095 109.799 97.3609C103.595 98.7505 97.3217 99.7471 90.9925 100.301C87.3519 105.531 83.3699 110.51 79.073 115.208Z" fill="white"/>
<path d="M113.894 54.6049L111.141 53.9101C103.914 52.1137 96.5529 50.9189 89.1315 50.3379L87.7795 50.2185L86.9989 49.0816C82.782 42.9167 78.0712 37.1096 72.9136 31.7185L70.9413 29.6762L72.9136 27.6409C87.4101 12.6641 101.251 6.73368 109.873 11.7447C118.668 16.8469 120.417 31.4659 114.668 51.8678L113.894 54.6049ZM90.9854 44.632C97.6343 45.2286 103.935 46.2322 109.789 47.5586C113.769 31.8238 112.751 20.1665 106.973 16.8118C101.231 13.4641 90.4209 18.5874 79.0676 29.7324C83.3608 34.4346 87.3474 39.4035 90.9854 44.632ZM47.1336 134.999C44.6813 135.034 42.2638 134.411 40.1293 133.195C31.3269 128.1 29.5845 113.467 35.3343 93.0647L36.087 90.3206L38.8399 91.0224C45.5585 92.7279 52.9601 93.928 60.8495 94.5807L62.2016 94.714L62.9891 95.8369C67.1987 101.999 71.91 107.817 77.0674 113.221L79.0467 115.256L77.0674 117.299C66.0348 128.717 55.3994 134.999 47.1336 134.999ZM40.2129 97.3669C36.2403 113.102 37.2579 124.78 43.0286 128.135C48.7784 131.433 59.5532 126.345 70.9413 115.207C66.6477 110.504 62.6599 105.527 59.0026 100.308C52.6819 99.7447 46.4051 98.7623 40.2129 97.3669Z" fill="white"/>
<path d="M75.007 101C70.2164 101 65.3003 100.797 60.3633 100.384L58.9965 100.265L58.2085 99.1314C55.4245 95.1137 52.8051 90.9835 50.3567 86.7513C47.9265 82.5077 45.6677 78.1675 43.5857 73.7413L43 72.5026L43.5857 71.2499C45.6707 66.8269 47.9231 62.488 50.3567 58.2469C52.7764 54.0759 55.4193 49.9049 58.2085 45.8598L58.9965 44.7401L60.3633 44.6141C70.104 43.7953 79.896 43.7953 89.6367 44.6141L90.9895 44.7471L91.7775 45.8668C97.3546 53.9062 102.253 62.3991 106.421 71.2569L107 72.5096L106.421 73.7483C102.264 82.6122 97.3656 91.106 91.7775 99.1384L90.9895 100.272L89.6367 100.391C84.7137 100.79 79.7906 101 75.007 101ZM62.2181 94.6735C70.83 95.3243 79.1839 95.3243 87.7888 94.6735C92.5926 87.6136 96.8628 80.2026 100.564 72.5026C96.8759 64.7957 92.6051 57.3838 87.7888 50.3318C79.2779 49.6739 70.7291 49.6739 62.2181 50.3318C57.3978 57.3812 53.1269 64.7935 49.4432 72.5026C53.1521 80.1983 57.422 87.6088 62.2181 94.6735Z" fill="white"/>
<path d="M58.704 164.576C60.1227 164.576 61.168 164.848 61.84 165.392C62.5227 165.925 62.864 166.736 62.864 167.824C62.864 168.432 62.752 168.939 62.528 169.344C62.304 169.749 62.016 170.075 61.664 170.32C61.3227 170.555 60.96 170.741 60.576 170.88L63.712 176H62.032L59.264 171.28H56.992V176H55.552V164.576H58.704ZM58.624 165.824H56.992V170.064H58.704C59.632 170.064 60.3093 169.883 60.736 169.52C61.1627 169.147 61.376 168.603 61.376 167.888C61.376 167.141 61.152 166.613 60.704 166.304C60.256 165.984 59.5627 165.824 58.624 165.824ZM68.6251 167.264C69.3611 167.264 69.9905 167.424 70.5131 167.744C71.0465 168.064 71.4518 168.517 71.7291 169.104C72.0171 169.68 72.1611 170.357 72.1611 171.136V171.984H66.2891C66.3105 172.955 66.5558 173.696 67.0251 174.208C67.5051 174.709 68.1718 174.96 69.0251 174.96C69.5691 174.96 70.0491 174.912 70.4651 174.816C70.8918 174.709 71.3291 174.56 71.7771 174.368V175.6C71.3398 175.792 70.9078 175.931 70.4811 176.016C70.0545 176.112 69.5478 176.16 68.9611 176.16C68.1505 176.16 67.4305 175.995 66.8011 175.664C66.1825 175.333 65.6971 174.843 65.3451 174.192C65.0038 173.531 64.8331 172.725 64.8331 171.776C64.8331 170.837 64.9878 170.032 65.2971 169.36C65.6171 168.688 66.0598 168.171 66.6251 167.808C67.2011 167.445 67.8678 167.264 68.6251 167.264ZM68.6091 168.416C67.9371 168.416 67.4038 168.635 67.0091 169.072C66.6251 169.499 66.3958 170.096 66.3211 170.864H70.6891C70.6785 170.139 70.5078 169.552 70.1771 169.104C69.8465 168.645 69.3238 168.416 68.6091 168.416ZM77.5924 167.28C78.6377 167.28 79.411 167.509 79.9124 167.968C80.4137 168.427 80.6644 169.157 80.6644 170.16V176H79.6404L79.3684 174.784H79.3044C78.931 175.253 78.5364 175.6 78.1204 175.824C77.715 176.048 77.1497 176.16 76.4244 176.16C75.6457 176.16 75.0004 175.957 74.4884 175.552C73.9764 175.136 73.7204 174.491 73.7204 173.616C73.7204 172.763 74.0564 172.107 74.7284 171.648C75.4004 171.179 76.435 170.923 77.8324 170.88L79.2884 170.832V170.32C79.2884 169.605 79.1337 169.109 78.8244 168.832C78.515 168.555 78.0777 168.416 77.5124 168.416C77.0644 168.416 76.6377 168.485 76.2324 168.624C75.827 168.752 75.4484 168.901 75.0964 169.072L74.6644 168.016C75.0377 167.813 75.4804 167.643 75.9924 167.504C76.5044 167.355 77.0377 167.28 77.5924 167.28ZM79.2724 171.808L78.0084 171.856C76.9417 171.899 76.2004 172.069 75.7844 172.368C75.379 172.667 75.1764 173.088 75.1764 173.632C75.1764 174.112 75.3204 174.464 75.6084 174.688C75.907 174.912 76.2857 175.024 76.7444 175.024C77.4697 175.024 78.0724 174.827 78.5524 174.432C79.0324 174.027 79.2724 173.408 79.2724 172.576V171.808ZM86.7531 176.16C85.9958 176.16 85.3185 176.005 84.7211 175.696C84.1345 175.387 83.6705 174.907 83.3291 174.256C82.9985 173.605 82.8331 172.773 82.8331 171.76C82.8331 170.704 83.0091 169.845 83.3611 169.184C83.7131 168.523 84.1878 168.037 84.7851 167.728C85.3931 167.419 86.0811 167.264 86.8491 167.264C87.2865 167.264 87.7078 167.312 88.1131 167.408C88.5185 167.493 88.8491 167.6 89.1051 167.728L88.6731 168.896C88.4171 168.8 88.1185 168.709 87.7771 168.624C87.4358 168.539 87.1158 168.496 86.8171 168.496C85.1318 168.496 84.2891 169.579 84.2891 171.744C84.2891 172.779 84.4918 173.573 84.8971 174.128C85.3131 174.672 85.9265 174.944 86.7371 174.944C87.2065 174.944 87.6171 174.896 87.9691 174.8C88.3318 174.704 88.6625 174.587 88.9611 174.448V175.696C88.6731 175.845 88.3531 175.957 88.0011 176.032C87.6598 176.117 87.2438 176.16 86.7531 176.16ZM93.8646 175.008C94.078 175.008 94.2966 174.992 94.5206 174.96C94.7446 174.917 94.926 174.875 95.0646 174.832V175.904C94.9153 175.979 94.702 176.037 94.4246 176.08C94.1473 176.133 93.8806 176.16 93.6246 176.16C93.1766 176.16 92.7606 176.085 92.3766 175.936C92.0033 175.776 91.6993 175.504 91.4646 175.12C91.23 174.736 91.1126 174.197 91.1126 173.504V168.512H89.8966V167.84L91.1286 167.28L91.6886 165.456H92.5206V167.424H95.0006V168.512H92.5206V173.472C92.5206 173.995 92.6433 174.384 92.8886 174.64C93.1446 174.885 93.47 175.008 93.8646 175.008Z" fill="#222222" fill-opacity="0.6"/>
</svg>
