<svg width="153" height="185" viewBox="0 0 153 185" fill="none" xmlns="http://www.w3.org/2000/svg">
<path d="M2 72.8723C2 32.6261 34.626 0 74.8723 0H79.1277C119.374 0 152 32.6261 152 72.8723C152 113.119 119.374 145.745 79.1277 145.745H74.8723C34.626 145.745 2 113.119 2 72.8723Z" fill="#24292E"/>
<path d="M66 73C66 66.9249 70.9249 62 77 62C83.0751 62 88 66.9249 88 73C88 79.0751 83.0751 84 77 84C70.9249 84 66 79.0751 66 73Z" fill="white"/>
<path d="M104 73C104 66.9249 108.925 62 115 62C121.075 62 126 66.9249 126 73C126 79.0751 121.075 84 115 84C108.925 84 104 79.0751 104 73Z" fill="white"/>
<path d="M28 73C28 66.9249 32.9249 62 39 62C45.0751 62 50 66.9249 50 73C50 79.0751 45.0751 84 39 84C32.9249 84 28 79.0751 28 73Z" fill="white"/>
<path d="M2.08 164.208C2.29333 164.208 2.48 164.283 2.64 164.432C2.81067 164.571 2.896 164.795 2.896 165.104C2.896 165.403 2.81067 165.627 2.64 165.776C2.48 165.925 2.29333 166 2.08 166C1.84533 166 1.648 165.925 1.488 165.776C1.328 165.627 1.248 165.403 1.248 165.104C1.248 164.795 1.328 164.571 1.488 164.432C1.648 164.283 1.84533 164.208 2.08 164.208ZM2.768 167.424V176H1.36V167.424H2.768ZM9.613 167.264C10.637 167.264 11.4103 167.515 11.933 168.016C12.4557 168.507 12.717 169.307 12.717 170.416V176H11.325V170.512C11.325 169.136 10.685 168.448 9.405 168.448C8.45567 168.448 7.79967 168.715 7.437 169.248C7.07433 169.781 6.893 170.549 6.893 171.552V176H5.485V167.424H6.621L6.829 168.592H6.909C7.18633 168.144 7.57033 167.813 8.061 167.6C8.55167 167.376 9.069 167.264 9.613 167.264ZM18.2396 175.008C18.453 175.008 18.6716 174.992 18.8956 174.96C19.1196 174.917 19.301 174.875 19.4396 174.832V175.904C19.2903 175.979 19.077 176.037 18.7996 176.08C18.5223 176.133 18.2556 176.16 17.9996 176.16C17.5516 176.16 17.1356 176.085 16.7516 175.936C16.3783 175.776 16.0743 175.504 15.8396 175.12C15.605 174.736 15.4876 174.197 15.4876 173.504V168.512H14.2716V167.84L15.5036 167.28L16.0636 165.456H16.8956V167.424H19.3756V168.512H16.8956V173.472C16.8956 173.995 17.0183 174.384 17.2636 174.64C17.5196 174.885 17.845 175.008 18.2396 175.008ZM24.4689 167.264C25.2049 167.264 25.8342 167.424 26.3569 167.744C26.8902 168.064 27.2955 168.517 27.5729 169.104C27.8609 169.68 28.0049 170.357 28.0049 171.136V171.984H22.1329C22.1542 172.955 22.3995 173.696 22.8689 174.208C23.3489 174.709 24.0155 174.96 24.8689 174.96C25.4129 174.96 25.8929 174.912 26.3089 174.816C26.7355 174.709 27.1729 174.56 27.6209 174.368V175.6C27.1835 175.792 26.7515 175.931 26.3249 176.016C25.8982 176.112 25.3915 176.16 24.8049 176.16C23.9942 176.16 23.2742 175.995 22.6449 175.664C22.0262 175.333 21.5409 174.843 21.1889 174.192C20.8475 173.531 20.6769 172.725 20.6769 171.776C20.6769 170.837 20.8315 170.032 21.1409 169.36C21.4609 168.688 21.9035 168.171 22.4689 167.808C23.0449 167.445 23.7115 167.264 24.4689 167.264ZM24.4529 168.416C23.7809 168.416 23.2475 168.635 22.8529 169.072C22.4689 169.499 22.2395 170.096 22.1649 170.864H26.5329C26.5222 170.139 26.3515 169.552 26.0209 169.104C25.6902 168.645 25.1675 168.416 24.4529 168.416ZM34.1881 167.264C34.3481 167.264 34.5188 167.275 34.7001 167.296C34.8921 167.307 35.0575 167.328 35.1961 167.36L35.0201 168.656C34.8815 168.624 34.7268 168.597 34.5561 168.576C34.3961 168.555 34.2415 168.544 34.0921 168.544C33.6548 168.544 33.2441 168.667 32.8601 168.912C32.4761 169.147 32.1668 169.483 31.9321 169.92C31.7081 170.347 31.5961 170.848 31.5961 171.424V176H30.1881V167.424H31.3401L31.5001 168.992H31.5641C31.8415 168.523 32.1988 168.117 32.6361 167.776C33.0735 167.435 33.5908 167.264 34.1881 167.264ZM39.797 167.264C40.533 167.264 41.1623 167.424 41.685 167.744C42.2183 168.064 42.6237 168.517 42.901 169.104C43.189 169.68 43.333 170.357 43.333 171.136V171.984H37.461C37.4823 172.955 37.7277 173.696 38.197 174.208C38.677 174.709 39.3437 174.96 40.197 174.96C40.741 174.96 41.221 174.912 41.637 174.816C42.0637 174.709 42.501 174.56 42.949 174.368V175.6C42.5117 175.792 42.0797 175.931 41.653 176.016C41.2263 176.112 40.7197 176.16 40.133 176.16C39.3223 176.16 38.6023 175.995 37.973 175.664C37.3543 175.333 36.869 174.843 36.517 174.192C36.1757 173.531 36.005 172.725 36.005 171.776C36.005 170.837 36.1597 170.032 36.469 169.36C36.789 168.688 37.2317 168.171 37.797 167.808C38.373 167.445 39.0397 167.264 39.797 167.264ZM39.781 168.416C39.109 168.416 38.5757 168.635 38.181 169.072C37.797 169.499 37.5677 170.096 37.493 170.864H41.861C41.8503 170.139 41.6797 169.552 41.349 169.104C41.0183 168.645 40.4957 168.416 39.781 168.416ZM51.1003 173.632C51.1003 174.464 50.7909 175.093 50.1723 175.52C49.5536 175.947 48.7216 176.16 47.6763 176.16C47.0789 176.16 46.5616 176.112 46.1243 176.016C45.6976 175.92 45.3189 175.787 44.9883 175.616V174.336C45.3296 174.507 45.7403 174.667 46.2203 174.816C46.7109 174.955 47.2069 175.024 47.7083 175.024C48.4229 175.024 48.9403 174.912 49.2603 174.688C49.5803 174.453 49.7403 174.144 49.7403 173.76C49.7403 173.547 49.6816 173.355 49.5643 173.184C49.4469 173.013 49.2336 172.843 48.9243 172.672C48.6256 172.501 48.1936 172.309 47.6283 172.096C47.0736 171.883 46.5989 171.669 46.2043 171.456C45.8096 171.243 45.5056 170.987 45.2923 170.688C45.0789 170.389 44.9723 170.005 44.9723 169.536C44.9723 168.811 45.2656 168.251 45.8523 167.856C46.4496 167.461 47.2283 167.264 48.1883 167.264C48.7109 167.264 49.1963 167.317 49.6443 167.424C50.1029 167.52 50.5296 167.659 50.9243 167.84L50.4443 168.96C50.0816 168.811 49.7029 168.683 49.3083 168.576C48.9136 168.469 48.5083 168.416 48.0923 168.416C47.5163 168.416 47.0736 168.512 46.7643 168.704C46.4656 168.885 46.3163 169.136 46.3163 169.456C46.3163 169.691 46.3856 169.893 46.5243 170.064C46.6629 170.224 46.8923 170.384 47.2123 170.544C47.5429 170.693 47.9803 170.875 48.5243 171.088C49.0683 171.291 49.5323 171.499 49.9163 171.712C50.3003 171.925 50.5936 172.187 50.7963 172.496C50.9989 172.795 51.1003 173.173 51.1003 173.632ZM56.0365 175.008C56.2498 175.008 56.4685 174.992 56.6925 174.96C56.9165 174.917 57.0978 174.875 57.2365 174.832V175.904C57.0872 175.979 56.8738 176.037 56.5965 176.08C56.3192 176.133 56.0525 176.16 55.7965 176.16C55.3485 176.16 54.9325 176.085 54.5485 175.936C54.1752 175.776 53.8712 175.504 53.6365 175.12C53.4018 174.736 53.2845 174.197 53.2845 173.504V168.512H52.0685V167.84L53.3005 167.28L53.8605 165.456H54.6925V167.424H57.1725V168.512H54.6925V173.472C54.6925 173.995 54.8152 174.384 55.0605 174.64C55.3165 174.885 55.6418 175.008 56.0365 175.008ZM62.2658 167.264C63.0018 167.264 63.6311 167.424 64.1538 167.744C64.6871 168.064 65.0924 168.517 65.3698 169.104C65.6578 169.68 65.8018 170.357 65.8018 171.136V171.984H59.9298C59.9511 172.955 60.1964 173.696 60.6658 174.208C61.1458 174.709 61.8124 174.96 62.6658 174.96C63.2098 174.96 63.6898 174.912 64.1058 174.816C64.5324 174.709 64.9698 174.56 65.4178 174.368V175.6C64.9804 175.792 64.5484 175.931 64.1218 176.016C63.6951 176.112 63.1884 176.16 62.6018 176.16C61.7911 176.16 61.0711 175.995 60.4418 175.664C59.8231 175.333 59.3378 174.843 58.9858 174.192C58.6444 173.531 58.4738 172.725 58.4738 171.776C58.4738 170.837 58.6284 170.032 58.9378 169.36C59.2578 168.688 59.7004 168.171 60.2658 167.808C60.8418 167.445 61.5084 167.264 62.2658 167.264ZM62.2498 168.416C61.5778 168.416 61.0444 168.635 60.6498 169.072C60.2658 169.499 60.0364 170.096 59.9618 170.864H64.3298C64.3191 170.139 64.1484 169.552 63.8178 169.104C63.4871 168.645 62.9644 168.416 62.2498 168.416ZM71.025 176.16C69.9583 176.16 69.105 175.792 68.465 175.056C67.825 174.309 67.505 173.2 67.505 171.728C67.505 170.256 67.825 169.147 68.465 168.4C69.1157 167.643 69.9743 167.264 71.041 167.264C71.7023 167.264 72.241 167.387 72.657 167.632C73.0837 167.877 73.4303 168.176 73.697 168.528H73.793C73.7823 168.389 73.761 168.187 73.729 167.92C73.7077 167.643 73.697 167.424 73.697 167.264V163.84H75.105V176H73.969L73.761 174.848H73.697C73.441 175.211 73.0997 175.52 72.673 175.776C72.2463 176.032 71.697 176.16 71.025 176.16ZM71.249 174.992C72.1557 174.992 72.7903 174.747 73.153 174.256C73.5263 173.755 73.713 173.003 73.713 172V171.744C73.713 170.677 73.537 169.861 73.185 169.296C72.833 168.72 72.1823 168.432 71.233 168.432C70.4757 168.432 69.905 168.736 69.521 169.344C69.1477 169.941 68.961 170.747 68.961 171.76C68.961 172.784 69.1477 173.579 69.521 174.144C69.905 174.709 70.481 174.992 71.249 174.992ZM83.0019 164.208C83.2152 164.208 83.4019 164.283 83.5619 164.432C83.7325 164.571 83.8179 164.795 83.8179 165.104C83.8179 165.403 83.7325 165.627 83.5619 165.776C83.4019 165.925 83.2152 166 83.0019 166C82.7672 166 82.5699 165.925 82.4099 165.776C82.2499 165.627 82.1699 165.403 82.1699 165.104C82.1699 164.795 82.2499 164.571 82.4099 164.432C82.5699 164.283 82.7672 164.208 83.0019 164.208ZM83.6899 167.424V176H82.2819V167.424H83.6899ZM90.5349 167.264C91.5589 167.264 92.3322 167.515 92.8549 168.016C93.3775 168.507 93.6389 169.307 93.6389 170.416V176H92.2469V170.512C92.2469 169.136 91.6069 168.448 90.3269 168.448C89.3775 168.448 88.7215 168.715 88.3589 169.248C87.9962 169.781 87.8149 170.549 87.8149 171.552V176H86.4069V167.424H87.5429L87.7509 168.592H87.8309C88.1082 168.144 88.4922 167.813 88.9829 167.6C89.4735 167.376 89.9909 167.264 90.5349 167.264ZM110.159 167.264C111.129 167.264 111.855 167.515 112.335 168.016C112.815 168.507 113.055 169.307 113.055 170.416V176H111.663V170.48C111.663 169.125 111.081 168.448 109.919 168.448C109.087 168.448 108.489 168.688 108.127 169.168C107.775 169.648 107.599 170.347 107.599 171.264V176H106.207V170.48C106.207 169.125 105.62 168.448 104.447 168.448C103.583 168.448 102.985 168.715 102.655 169.248C102.324 169.781 102.159 170.549 102.159 171.552V176H100.751V167.424H101.887L102.095 168.592H102.175C102.441 168.144 102.799 167.813 103.247 167.6C103.705 167.376 104.191 167.264 104.703 167.264C106.047 167.264 106.921 167.744 107.327 168.704H107.407C107.695 168.213 108.084 167.851 108.575 167.616C109.076 167.381 109.604 167.264 110.159 167.264ZM123.16 171.696C123.16 173.115 122.797 174.213 122.072 174.992C121.357 175.771 120.386 176.16 119.16 176.16C118.402 176.16 117.725 175.989 117.128 175.648C116.541 175.296 116.077 174.789 115.736 174.128C115.394 173.456 115.224 172.645 115.224 171.696C115.224 170.277 115.581 169.184 116.296 168.416C117.01 167.648 117.981 167.264 119.208 167.264C119.986 167.264 120.669 167.44 121.256 167.792C121.853 168.133 122.317 168.635 122.648 169.296C122.989 169.947 123.16 170.747 123.16 171.696ZM116.68 171.696C116.68 172.709 116.877 173.515 117.272 174.112C117.677 174.699 118.317 174.992 119.192 174.992C120.056 174.992 120.69 174.699 121.096 174.112C121.501 173.515 121.704 172.709 121.704 171.696C121.704 170.683 121.501 169.888 121.096 169.312C120.69 168.736 120.05 168.448 119.176 168.448C118.301 168.448 117.666 168.736 117.272 169.312C116.877 169.888 116.68 170.683 116.68 171.696ZM129.391 167.264C129.551 167.264 129.722 167.275 129.903 167.296C130.095 167.307 130.261 167.328 130.399 167.36L130.223 168.656C130.085 168.624 129.93 168.597 129.759 168.576C129.599 168.555 129.445 168.544 129.295 168.544C128.858 168.544 128.447 168.667 128.063 168.912C127.679 169.147 127.37 169.483 127.135 169.92C126.911 170.347 126.799 170.848 126.799 171.424V176H125.391V167.424H126.543L126.703 168.992H126.767C127.045 168.523 127.402 168.117 127.839 167.776C128.277 167.435 128.794 167.264 129.391 167.264ZM135 167.264C135.736 167.264 136.365 167.424 136.888 167.744C137.421 168.064 137.827 168.517 138.104 169.104C138.392 169.68 138.536 170.357 138.536 171.136V171.984H132.664C132.685 172.955 132.931 173.696 133.4 174.208C133.88 174.709 134.547 174.96 135.4 174.96C135.944 174.96 136.424 174.912 136.84 174.816C137.267 174.709 137.704 174.56 138.152 174.368V175.6C137.715 175.792 137.283 175.931 136.856 176.016C136.429 176.112 135.923 176.16 135.336 176.16C134.525 176.16 133.805 175.995 133.176 175.664C132.557 175.333 132.072 174.843 131.72 174.192C131.379 173.531 131.208 172.725 131.208 171.776C131.208 170.837 131.363 170.032 131.672 169.36C131.992 168.688 132.435 168.171 133 167.808C133.576 167.445 134.243 167.264 135 167.264ZM134.984 168.416C134.312 168.416 133.779 168.635 133.384 169.072C133 169.499 132.771 170.096 132.696 170.864H137.064C137.053 170.139 136.883 169.552 136.552 169.104C136.221 168.645 135.699 168.416 134.984 168.416ZM142.414 174.336V176H140.75V174.336H142.414ZM146.867 174.336V176H145.203V174.336H146.867ZM151.32 174.336V176H149.656V174.336H151.32Z" fill="#222222" fill-opacity="0.6"/>
</svg>
