<svg width="150" height="186" viewBox="0 0 150 186" fill="none" xmlns="http://www.w3.org/2000/svg">
<path d="M0 75C0 116.421 33.5786 150 75 150C116.421 150 150 116.421 150 75C150 33.5786 116.421 0 75 0C33.5786 0 0 33.5786 0 75Z" fill="#24292E"/>
<path d="M33.1708 75.4979C33.1706 75.4981 33.1705 75.4983 33.1705 75.4986L33.1568 77.2667C33.1382 79.6768 35.0868 81.6405 37.497 81.6405H42.9225C48.2929 81.6405 52.6465 85.9941 52.6465 91.3646V130.212C52.6465 134.026 55.7381 137.117 59.5518 137.117C63.3654 137.117 66.457 134.026 66.457 130.212V91.4023C66.457 86.011 70.8275 81.6405 76.2188 81.6405H79.957C83.2837 81.6405 85.9805 78.9438 85.9805 75.6171C85.9805 71.5048 83.7318 69.353 79.6195 69.33C74.7665 69.3028 67.5056 69.2937 59.4568 69.3072L37.5793 69.3668C35.1742 69.3734 33.22 71.3101 33.1919 73.7151L33.1711 75.4972C33.1711 75.4974 33.171 75.4977 33.1708 75.4979Z" fill="white"/>
<path d="M121.035 69.2043C121.035 69.2041 121.035 69.204 121.036 69.204C124.845 70.1568 127.75 71.8466 130.416 74.6087C131.797 76.0852 133.845 78.7758 134.012 79.4186C134.058 79.609 127.535 83.9901 123.583 86.4422C123.44 86.5378 122.868 85.9184 122.225 84.9657C120.297 82.1567 118.273 80.9421 115.178 80.7282C110.631 80.4182 107.702 82.7995 107.726 86.7751C107.726 87.9422 107.892 88.6325 108.369 89.5852C109.369 91.6565 111.226 92.8946 117.059 95.4182C127.797 100.038 132.392 103.085 135.25 107.418C138.44 112.252 139.154 119.966 136.987 125.704C134.607 131.942 128.702 136.181 120.392 137.585C117.821 138.038 111.726 137.966 108.964 137.466C102.94 136.395 97.2258 133.419 93.7019 129.514C92.3209 127.99 89.6303 124.014 89.7973 123.728C89.8687 123.633 90.4875 123.252 91.1777 122.847C91.8445 122.466 94.3687 121.013 96.7494 119.633L99.6651 117.941C100.45 117.486 101.454 117.715 101.964 118.466C103.226 120.394 105.987 123.038 107.654 123.918C112.44 126.442 119.012 126.085 122.249 123.18C123.63 121.918 124.202 120.609 124.202 118.68C124.202 116.942 123.987 116.18 123.083 114.871C121.917 113.204 119.535 111.799 112.773 108.871C105.035 105.537 101.702 103.466 98.6543 100.18C96.8924 98.2758 95.2254 95.2278 94.5351 92.6801C93.9639 90.5614 93.8203 85.2516 94.2732 83.1089C95.8687 75.6323 101.511 70.4186 109.654 68.8706C112.297 68.3708 118.439 68.5612 121.035 69.2045C121.035 69.2045 121.035 69.2044 121.035 69.2043Z" fill="white"/>
<path d="M43.168 177H41.728V166.84H38.16V165.576H46.72V166.84H43.168V177ZM46.5941 168.424H48.0981L49.9541 173.304C50.1141 173.731 50.2581 174.141 50.3861 174.536C50.5141 174.92 50.6101 175.288 50.6741 175.64H50.7381C50.8021 175.373 50.9035 175.027 51.0421 174.6C51.1808 174.163 51.3248 173.725 51.4741 173.288L53.2181 168.424H54.7381L51.0421 178.184C50.7435 178.995 50.3541 179.64 49.8741 180.12C49.4048 180.6 48.7541 180.84 47.9221 180.84C47.6661 180.84 47.4421 180.824 47.2501 180.792C47.0581 180.771 46.8928 180.744 46.7541 180.712V179.592C46.8715 179.613 47.0101 179.635 47.1701 179.656C47.3408 179.677 47.5168 179.688 47.6981 179.688C48.1888 179.688 48.5835 179.549 48.8821 179.272C49.1915 178.995 49.4315 178.627 49.6021 178.168L50.0501 177.032L46.5941 168.424ZM60.1744 168.264C61.2304 168.264 62.0784 168.632 62.7184 169.368C63.369 170.104 63.6944 171.213 63.6944 172.696C63.6944 174.157 63.369 175.267 62.7184 176.024C62.0784 176.781 61.225 177.16 60.1584 177.16C59.497 177.16 58.9477 177.037 58.5104 176.792C58.0837 176.536 57.7477 176.243 57.5024 175.912H57.4064C57.4277 176.093 57.449 176.323 57.4704 176.6C57.4917 176.877 57.5024 177.117 57.5024 177.32V180.84H56.0944V168.424H57.2464L57.4384 169.592H57.5024C57.7584 169.219 58.0944 168.904 58.5104 168.648C58.9264 168.392 59.481 168.264 60.1744 168.264ZM59.9184 169.448C59.0437 169.448 58.425 169.693 58.0624 170.184C57.7104 170.675 57.5237 171.421 57.5024 172.424V172.696C57.5024 173.752 57.673 174.568 58.0144 175.144C58.3664 175.709 59.0117 175.992 59.9504 175.992C60.473 175.992 60.8997 175.848 61.2304 175.56C61.5717 175.272 61.8224 174.883 61.9824 174.392C62.153 173.891 62.2384 173.32 62.2384 172.68C62.2384 171.699 62.0464 170.915 61.6624 170.328C61.289 169.741 60.7077 169.448 59.9184 169.448ZM69.2501 168.264C69.9861 168.264 70.6155 168.424 71.1381 168.744C71.6715 169.064 72.0768 169.517 72.3541 170.104C72.6421 170.68 72.7861 171.357 72.7861 172.136V172.984H66.9141C66.9355 173.955 67.1808 174.696 67.6501 175.208C68.1301 175.709 68.7968 175.96 69.6501 175.96C70.1941 175.96 70.6741 175.912 71.0901 175.816C71.5168 175.709 71.9541 175.56 72.4021 175.368V176.6C71.9648 176.792 71.5328 176.931 71.1061 177.016C70.6795 177.112 70.1728 177.16 69.5861 177.16C68.7755 177.16 68.0555 176.995 67.4261 176.664C66.8075 176.333 66.3221 175.843 65.9701 175.192C65.6288 174.531 65.4581 173.725 65.4581 172.776C65.4581 171.837 65.6128 171.032 65.9221 170.36C66.2421 169.688 66.6848 169.171 67.2501 168.808C67.8261 168.445 68.4928 168.264 69.2501 168.264ZM69.2341 169.416C68.5621 169.416 68.0288 169.635 67.6341 170.072C67.2501 170.499 67.0208 171.096 66.9461 171.864H71.3141C71.3035 171.139 71.1328 170.552 70.8021 170.104C70.4715 169.645 69.9488 169.416 69.2341 169.416ZM81.6414 173.944C81.6414 174.957 81.2734 175.747 80.5374 176.312C79.8014 176.877 78.8094 177.16 77.5614 177.16C76.9214 177.16 76.3294 177.112 75.7854 177.016C75.2414 176.92 74.788 176.787 74.4254 176.616V175.24C74.8094 175.411 75.284 175.565 75.8494 175.704C76.4254 175.843 77.0174 175.912 77.6254 175.912C78.4787 175.912 79.1187 175.747 79.5454 175.416C79.9827 175.085 80.2014 174.637 80.2014 174.072C80.2014 173.699 80.1214 173.384 79.9614 173.128C79.8014 172.872 79.524 172.637 79.1294 172.424C78.7454 172.2 78.2067 171.965 77.5134 171.72C76.5427 171.368 75.8067 170.936 75.3054 170.424C74.8147 169.912 74.5694 169.213 74.5694 168.328C74.5694 167.72 74.724 167.203 75.0334 166.776C75.3427 166.339 75.7694 166.003 76.3134 165.768C76.868 165.533 77.5027 165.416 78.2174 165.416C78.8467 165.416 79.4227 165.475 79.9454 165.592C80.468 165.709 80.9427 165.864 81.3694 166.056L80.9214 167.288C80.5267 167.117 80.0947 166.973 79.6254 166.856C79.1667 166.739 78.6867 166.68 78.1854 166.68C77.4707 166.68 76.932 166.835 76.5694 167.144C76.2067 167.443 76.0254 167.843 76.0254 168.344C76.0254 168.728 76.1054 169.048 76.2654 169.304C76.4254 169.56 76.6867 169.789 77.0494 169.992C77.412 170.195 77.9027 170.413 78.5214 170.648C79.1934 170.893 79.7587 171.16 80.2174 171.448C80.6867 171.725 81.0387 172.061 81.2734 172.456C81.5187 172.851 81.6414 173.347 81.6414 173.944ZM87.1906 177.16C86.4333 177.16 85.756 177.005 85.1586 176.696C84.572 176.387 84.108 175.907 83.7666 175.256C83.436 174.605 83.2706 173.773 83.2706 172.76C83.2706 171.704 83.4466 170.845 83.7986 170.184C84.1506 169.523 84.6253 169.037 85.2226 168.728C85.8306 168.419 86.5186 168.264 87.2866 168.264C87.724 168.264 88.1453 168.312 88.5506 168.408C88.956 168.493 89.2866 168.6 89.5426 168.728L89.1106 169.896C88.8546 169.8 88.556 169.709 88.2146 169.624C87.8733 169.539 87.5533 169.496 87.2546 169.496C85.5693 169.496 84.7266 170.579 84.7266 172.744C84.7266 173.779 84.9293 174.573 85.3346 175.128C85.7506 175.672 86.364 175.944 87.1746 175.944C87.644 175.944 88.0546 175.896 88.4066 175.8C88.7693 175.704 89.1 175.587 89.3986 175.448V176.696C89.1106 176.845 88.7906 176.957 88.4386 177.032C88.0973 177.117 87.6813 177.16 87.1906 177.16ZM95.4381 168.264C95.5981 168.264 95.7688 168.275 95.9501 168.296C96.1421 168.307 96.3075 168.328 96.4461 168.36L96.2701 169.656C96.1315 169.624 95.9768 169.597 95.8061 169.576C95.6461 169.555 95.4915 169.544 95.3421 169.544C94.9048 169.544 94.4941 169.667 94.1101 169.912C93.7261 170.147 93.4168 170.483 93.1821 170.92C92.9581 171.347 92.8461 171.848 92.8461 172.424V177H91.4381V168.424H92.5901L92.7501 169.992H92.8141C93.0915 169.523 93.4488 169.117 93.8861 168.776C94.3235 168.435 94.8408 168.264 95.4381 168.264ZM98.7675 165.208C98.9808 165.208 99.1675 165.283 99.3275 165.432C99.4982 165.571 99.5835 165.795 99.5835 166.104C99.5835 166.403 99.4982 166.627 99.3275 166.776C99.1675 166.925 98.9808 167 98.7675 167C98.5328 167 98.3355 166.925 98.1755 166.776C98.0155 166.627 97.9355 166.403 97.9355 166.104C97.9355 165.795 98.0155 165.571 98.1755 165.432C98.3355 165.283 98.5328 165.208 98.7675 165.208ZM99.4555 168.424V177H98.0475V168.424H99.4555ZM106.253 168.264C107.309 168.264 108.157 168.632 108.797 169.368C109.447 170.104 109.773 171.213 109.773 172.696C109.773 174.157 109.447 175.267 108.797 176.024C108.157 176.781 107.303 177.16 106.237 177.16C105.575 177.16 105.026 177.037 104.589 176.792C104.162 176.536 103.826 176.243 103.581 175.912H103.485C103.506 176.093 103.527 176.323 103.549 176.6C103.57 176.877 103.581 177.117 103.581 177.32V180.84H102.173V168.424H103.325L103.517 169.592H103.581C103.837 169.219 104.173 168.904 104.589 168.648C105.005 168.392 105.559 168.264 106.253 168.264ZM105.997 169.448C105.122 169.448 104.503 169.693 104.141 170.184C103.789 170.675 103.602 171.421 103.581 172.424V172.696C103.581 173.752 103.751 174.568 104.093 175.144C104.445 175.709 105.09 175.992 106.029 175.992C106.551 175.992 106.978 175.848 107.309 175.56C107.65 175.272 107.901 174.883 108.061 174.392C108.231 173.891 108.317 173.32 108.317 172.68C108.317 171.699 108.125 170.915 107.741 170.328C107.367 169.741 106.786 169.448 105.997 169.448ZM114.88 176.008C115.094 176.008 115.312 175.992 115.536 175.96C115.76 175.917 115.942 175.875 116.08 175.832V176.904C115.931 176.979 115.718 177.037 115.44 177.08C115.163 177.133 114.896 177.16 114.64 177.16C114.192 177.16 113.776 177.085 113.392 176.936C113.019 176.776 112.715 176.504 112.48 176.12C112.246 175.736 112.128 175.197 112.128 174.504V169.512H110.912V168.84L112.144 168.28L112.704 166.456H113.536V168.424H116.016V169.512H113.536V174.472C113.536 174.995 113.659 175.384 113.904 175.64C114.16 175.885 114.486 176.008 114.88 176.008Z" fill="#222222" fill-opacity="0.6"/>
</svg>
