<svg width="150" height="187" viewBox="0 0 150 187" fill="none" xmlns="http://www.w3.org/2000/svg">
<path d="M69.4 169.264C69.9653 169.264 70.472 169.371 70.92 169.584C71.3787 169.797 71.768 170.123 72.088 170.56H72.168L72.36 169.424H73.48V178.144C73.48 179.371 73.1653 180.293 72.536 180.912C71.9173 181.531 70.952 181.84 69.64 181.84C68.3813 181.84 67.352 181.659 66.552 181.296V180C67.3947 180.448 68.4507 180.672 69.72 180.672C70.456 180.672 71.032 180.453 71.448 180.016C71.8747 179.589 72.088 179.003 72.088 178.256V177.92C72.088 177.792 72.0933 177.611 72.104 177.376C72.1147 177.131 72.1253 176.96 72.136 176.864H72.072C71.496 177.728 70.6107 178.16 69.416 178.16C68.3067 178.16 67.4373 177.771 66.808 176.992C66.1893 176.213 65.88 175.125 65.88 173.728C65.88 172.363 66.1893 171.28 66.808 170.48C67.4373 169.669 68.3013 169.264 69.4 169.264ZM69.592 170.448C68.8773 170.448 68.3227 170.736 67.928 171.312C67.5333 171.877 67.336 172.688 67.336 173.744C67.336 174.8 67.528 175.611 67.912 176.176C68.3067 176.731 68.8773 177.008 69.624 177.008C70.488 177.008 71.1173 176.779 71.512 176.32C71.9067 175.851 72.104 175.099 72.104 174.064V173.728C72.104 172.555 71.9013 171.717 71.496 171.216C71.0907 170.704 70.456 170.448 69.592 170.448ZM76.9238 166.208C77.1371 166.208 77.3238 166.283 77.4838 166.432C77.6544 166.571 77.7398 166.795 77.7398 167.104C77.7398 167.403 77.6544 167.627 77.4838 167.776C77.3238 167.925 77.1371 168 76.9238 168C76.6891 168 76.4918 167.925 76.3318 167.776C76.1718 167.627 76.0918 167.403 76.0918 167.104C76.0918 166.795 76.1718 166.571 76.3318 166.432C76.4918 166.283 76.6891 166.208 76.9238 166.208ZM77.6118 169.424V178H76.2038V169.424H77.6118ZM83.1927 177.008C83.4061 177.008 83.6248 176.992 83.8488 176.96C84.0728 176.917 84.2541 176.875 84.3928 176.832V177.904C84.2434 177.979 84.0301 178.037 83.7528 178.08C83.4754 178.133 83.2088 178.16 82.9528 178.16C82.5048 178.16 82.0888 178.085 81.7048 177.936C81.3314 177.776 81.0274 177.504 80.7928 177.12C80.5581 176.736 80.4408 176.197 80.4408 175.504V170.512H79.2248V169.84L80.4568 169.28L81.0168 167.456H81.8488V169.424H84.3288V170.512H81.8488V175.472C81.8488 175.995 81.9714 176.384 82.2168 176.64C82.4728 176.885 82.7981 177.008 83.1927 177.008Z" fill="#222222" fill-opacity="0.6"/>
<path d="M75.0084 6.44587e-06C33.5661 -0.0172072 0 34.4446 0 76.9796C0 110.615 20.9977 139.207 50.2402 149.707C54.1783 150.723 53.575 147.848 53.575 145.886V132.545C30.8345 135.282 29.9129 119.824 28.3879 117.242C25.3044 111.837 18.0147 110.46 20.1933 107.878C25.3715 105.141 30.6502 108.567 36.7668 117.845C41.1909 124.575 49.8212 123.439 54.1951 122.32C55.1503 118.275 57.1947 114.66 60.0101 111.854C36.4484 107.517 26.6283 92.7473 26.6283 75.1894C26.6283 66.6686 29.3598 58.8364 34.7224 52.5189C31.3038 42.1047 35.0408 33.188 35.5435 31.8625C45.2799 30.9674 55.4016 39.0234 56.1893 39.6603C61.7194 38.1283 68.0371 37.3193 75.1089 37.3193C82.2143 37.3193 88.5488 38.1627 94.1292 39.712C96.0228 38.2316 105.407 31.3117 114.456 32.1552C114.942 33.4806 118.596 42.1907 115.378 52.4673C120.808 58.8019 123.573 66.703 123.573 75.241C123.573 92.8334 113.686 107.62 90.057 111.889C92.0808 113.933 93.6878 116.372 94.784 119.061C95.8803 121.751 96.4438 124.638 96.4417 127.553V146.919C96.5758 148.468 96.4417 150 98.9554 150C128.634 139.723 150 110.925 150 76.9968C150 34.4446 116.417 6.44587e-06 75.0084 6.44587e-06Z" fill="#24292E"/>
</svg>
