<svg width="150" height="183" viewBox="0 0 150 183" fill="none" xmlns="http://www.w3.org/2000/svg">
<path d="M0 72.8723C0 32.6261 32.626 0 72.8723 0H77.1277C117.374 0 150 32.6261 150 72.8723V72.8723C150 113.119 117.374 145.745 77.1277 145.745H72.8723C32.626 145.745 0 113.119 0 72.8723V72.8723Z" fill="#24292E"/>
<path d="M51.1406 72.4809C49.2891 82.5485 42.75 81.5045 34.7109 81.5045L37.9219 63.9544C46.8281 63.9544 52.875 62.9352 51.1406 72.4809ZM22.8281 99.2783H31.4297L33.4688 88.1417C43.1016 88.1417 49.0781 88.8874 54.6094 83.3937C60.7266 77.4277 62.3203 66.8132 57.9609 61.4935C55.6875 58.7093 52.0312 57.3421 47.0625 57.3421H30.4922L22.8281 99.2783ZM66.3516 46.1807H74.9062L72.8672 57.3172C80.25 57.3172 87.0938 56.7455 90.3984 59.9771C93.8672 63.3578 92.2031 67.6832 88.4531 88.092H79.7812C83.3906 68.3544 84.0703 66.7137 82.7578 65.2222C81.4922 63.7804 78.6094 64.0787 71.6484 64.0787L67.2422 88.092H58.6875L66.3516 46.1807ZM118.359 72.4809C116.484 82.6977 109.758 81.5045 101.93 81.5045L105.141 63.9544C114.094 63.9544 120.094 62.9352 118.359 72.4809ZM90.0469 99.2783H98.6719L100.711 88.1417C110.836 88.1417 116.438 88.7632 121.852 83.3937C127.969 77.4277 129.562 66.8132 125.203 61.4935C122.93 58.7093 119.273 57.3421 114.305 57.3421H97.7344L90.0469 99.2783Z" fill="white"/>
<path d="M63.576 162.576C65.0693 162.576 66.1573 162.869 66.84 163.456C67.5227 164.043 67.864 164.869 67.864 165.936C67.864 166.565 67.72 167.157 67.432 167.712C67.1547 168.256 66.68 168.699 66.008 169.04C65.3467 169.381 64.4453 169.552 63.304 169.552H61.992V174H60.552V162.576H63.576ZM63.448 163.808H61.992V168.32H63.144C64.232 168.32 65.0427 168.144 65.576 167.792C66.1093 167.44 66.376 166.843 66.376 166C66.376 165.264 66.1413 164.715 65.672 164.352C65.2027 163.989 64.4613 163.808 63.448 163.808ZM78.9755 174H77.5355V168.672H71.6795V174H70.2395V162.576H71.6795V167.408H77.5355V162.576H78.9755V174ZM85.1229 162.576C86.6162 162.576 87.7042 162.869 88.3869 163.456C89.0695 164.043 89.4109 164.869 89.4109 165.936C89.4109 166.565 89.2669 167.157 88.9789 167.712C88.7015 168.256 88.2269 168.699 87.5549 169.04C86.8935 169.381 85.9922 169.552 84.8509 169.552H83.5389V174H82.0989V162.576H85.1229ZM84.9949 163.808H83.5389V168.32H84.6909C85.7789 168.32 86.5895 168.144 87.1229 167.792C87.6562 167.44 87.9229 166.843 87.9229 166C87.9229 165.264 87.6882 164.715 87.2189 164.352C86.7495 163.989 86.0082 163.808 84.9949 163.808Z" fill="#222222" fill-opacity="0.6"/>
</svg>
