<svg width="150" height="183" viewBox="0 0 150 183" fill="none" xmlns="http://www.w3.org/2000/svg">
<path d="M0 72.8723C0 32.6261 32.626 0 72.8723 0H77.1277C117.374 0 150 32.6261 150 72.8723C150 113.119 117.374 145.745 77.1277 145.745H72.8723C32.626 145.745 0 113.119 0 72.8723Z" fill="#24292E"/>
<path d="M116.853 99.8854C111.487 99.7516 107.327 100.288 103.839 101.764C102.833 102.166 101.222 102.167 101.088 103.441C101.625 103.978 101.692 104.85 102.162 105.588C102.967 106.929 104.375 108.741 105.65 109.68C107.059 110.754 108.468 111.827 109.943 112.766C112.56 114.376 115.512 115.315 118.061 116.925C119.537 117.864 121.012 119.072 122.488 120.078C123.226 120.614 123.695 121.487 124.635 121.822V121.621C124.165 121.017 124.031 120.145 123.562 119.474C122.891 118.803 122.22 118.2 121.549 117.529C119.604 114.913 117.189 112.632 114.572 110.754C112.426 109.278 107.729 107.265 106.858 104.783C106.858 104.783 106.79 104.716 106.723 104.649C108.199 104.515 109.943 103.978 111.352 103.575C113.633 102.971 115.713 103.106 118.061 102.502C119.134 102.234 120.207 101.898 121.281 101.563V100.959C120.074 99.7516 119.201 98.1418 117.927 97.0012C114.505 94.0488 110.748 91.1646 106.858 88.7497C104.778 87.4079 102.094 86.5357 99.8805 85.3955C99.0761 84.9925 97.7339 84.7917 97.2647 84.1207C96.0566 82.6451 95.3857 80.6998 94.5139 78.9554C92.569 75.2654 90.69 71.1735 89.0127 67.283C87.8059 64.6664 87.0678 62.0498 85.5918 59.6352C78.6821 48.2308 71.1686 41.3211 59.6303 34.5452C57.1479 33.1366 54.1962 32.5328 51.0433 31.7952C49.3668 31.7277 47.6891 31.5939 46.0122 31.5264C44.9387 31.0568 43.8652 29.7824 42.9259 29.1786C39.1028 26.7633 29.2407 21.5312 26.4232 28.4409C24.6117 32.8011 29.1069 37.0943 30.6493 39.3087C31.7906 40.8514 33.2658 42.5954 34.0709 44.3398C34.5406 45.4796 34.6744 46.688 35.144 47.8953C36.2179 50.8462 37.2235 54.1341 38.6328 56.8849C39.3708 58.2934 40.1755 59.769 41.1148 61.0438C41.6516 61.7814 42.5905 62.1173 42.7921 63.3245C41.8532 64.6664 41.7858 66.6791 41.2486 68.3561C38.8337 75.9367 39.7734 85.3284 43.1943 90.8963C44.2674 92.5728 46.8169 96.2636 50.2382 94.8543C53.2573 93.647 52.5864 89.8232 53.4578 86.469C53.6599 85.6631 53.5257 85.1271 53.9279 84.5904V84.725C54.8672 86.6028 55.8061 88.4146 56.6782 90.2928C58.7581 93.5796 62.3803 97.0012 65.3991 99.2824C67.0096 100.489 68.284 102.569 70.2968 103.307V103.105H70.1622C69.7596 102.502 69.1558 102.234 68.6195 101.764C67.4122 100.557 66.07 99.0807 65.1311 97.7389C62.314 93.9817 59.8312 89.8228 57.6175 85.5293C56.5445 83.4502 55.6048 81.1691 54.733 79.0896C54.33 78.2837 54.33 77.0769 53.6595 76.6747C52.6531 78.1503 51.1775 79.4251 50.4395 81.2362C49.1655 84.1207 49.0309 87.6762 48.5613 91.3655C48.2929 91.4334 48.4267 91.3655 48.2925 91.5005C46.1464 90.963 45.4083 88.7497 44.6028 86.8711C42.5901 82.1084 42.2546 74.4607 43.9994 68.9599C44.4691 67.5509 46.4818 63.1236 45.6767 61.7818C45.2742 60.5071 43.9319 59.769 43.1943 58.7631C42.3225 57.4883 41.3828 55.8789 40.7794 54.4696C39.1692 50.7128 38.3641 46.5535 36.6201 42.7967C35.815 41.0523 34.4068 39.2416 33.2658 37.6314C31.9915 35.8203 30.5826 34.5452 29.5762 32.3986C29.2411 31.661 28.7711 30.4533 29.3078 29.6482C29.442 29.1115 29.71 28.9106 30.2471 28.7764C31.1193 28.038 33.6017 28.9773 34.4731 29.3798C36.9555 30.3855 39.035 31.3255 41.1148 32.7341C42.0537 33.405 43.0601 34.6797 44.2674 35.0152H45.6763C47.8233 35.4844 50.2378 35.1494 52.2506 35.7528C55.8064 36.893 59.0261 38.5703 61.911 40.3818C70.6993 45.9496 77.9437 53.8657 82.8414 63.3245C83.6465 64.8669 83.9816 66.2766 84.7196 67.886C86.1289 71.1735 87.8729 74.5277 89.2811 77.7478C90.69 80.9003 92.0315 84.1207 94.0443 86.7373C95.0506 88.1455 99.0754 88.8839 100.887 89.6219C102.229 90.2253 104.309 90.7625 105.516 91.5001C107.797 92.9082 110.077 94.5192 112.224 96.0616C113.298 96.8667 116.652 98.544 116.853 99.8854Z" fill="white"/>
<path d="M48.4263 41.5886C47.2862 41.5886 46.4814 41.7236 45.6763 41.9245V42.0587H45.8105C46.3476 43.1321 47.2862 43.8701 47.9567 44.809C48.4938 45.8821 48.9631 46.956 49.5002 48.0295C49.5669 47.962 49.634 47.8953 49.634 47.8953C50.5737 47.224 51.0429 46.1509 51.0429 44.5407C50.6404 44.0714 50.5733 43.6018 50.2378 43.1321C49.8356 42.4608 48.9631 42.1257 48.4263 41.5886Z" fill="white"/>
<path d="M58.592 174L54.832 163.984H54.768C54.8 164.315 54.8267 164.763 54.848 165.328C54.8693 165.883 54.88 166.464 54.88 167.072V174H53.552V162.576H55.68L59.2 171.936H59.264L62.848 162.576H64.96V174H63.536V166.976C63.536 166.421 63.5467 165.872 63.568 165.328C63.6 164.784 63.6267 164.341 63.648 164H63.584L59.776 174H58.592ZM66.5316 165.424H68.0356L69.8916 170.304C70.0516 170.731 70.1956 171.141 70.3236 171.536C70.4516 171.92 70.5476 172.288 70.6116 172.64H70.6756C70.7396 172.373 70.841 172.027 70.9796 171.6C71.1183 171.163 71.2623 170.725 71.4116 170.288L73.1556 165.424H74.6756L70.9796 175.184C70.681 175.995 70.2916 176.64 69.8116 177.12C69.3423 177.6 68.6916 177.84 67.8596 177.84C67.6036 177.84 67.3796 177.824 67.1876 177.792C66.9956 177.771 66.8303 177.744 66.6916 177.712V176.592C66.809 176.613 66.9476 176.635 67.1076 176.656C67.2783 176.677 67.4543 176.688 67.6356 176.688C68.1263 176.688 68.521 176.549 68.8196 176.272C69.129 175.995 69.369 175.627 69.5396 175.168L69.9876 174.032L66.5316 165.424ZM82.7039 170.944C82.7039 171.957 82.3359 172.747 81.5999 173.312C80.8639 173.877 79.8719 174.16 78.6239 174.16C77.9839 174.16 77.3919 174.112 76.8479 174.016C76.3039 173.92 75.8505 173.787 75.4879 173.616V172.24C75.8719 172.411 76.3465 172.565 76.9119 172.704C77.4879 172.843 78.0799 172.912 78.6879 172.912C79.5412 172.912 80.1812 172.747 80.6079 172.416C81.0452 172.085 81.2639 171.637 81.2639 171.072C81.2639 170.699 81.1839 170.384 81.0239 170.128C80.8639 169.872 80.5865 169.637 80.1919 169.424C79.8079 169.2 79.2692 168.965 78.5759 168.72C77.6052 168.368 76.8692 167.936 76.3679 167.424C75.8772 166.912 75.6319 166.213 75.6319 165.328C75.6319 164.72 75.7865 164.203 76.0959 163.776C76.4052 163.339 76.8319 163.003 77.3759 162.768C77.9305 162.533 78.5652 162.416 79.2799 162.416C79.9092 162.416 80.4852 162.475 81.0079 162.592C81.5305 162.709 82.0052 162.864 82.4319 163.056L81.9839 164.288C81.5892 164.117 81.1572 163.973 80.6879 163.856C80.2292 163.739 79.7492 163.68 79.2479 163.68C78.5332 163.68 77.9945 163.835 77.6319 164.144C77.2692 164.443 77.0879 164.843 77.0879 165.344C77.0879 165.728 77.1679 166.048 77.3279 166.304C77.4879 166.56 77.7492 166.789 78.1119 166.992C78.4745 167.195 78.9652 167.413 79.5839 167.648C80.2559 167.893 80.8212 168.16 81.2799 168.448C81.7492 168.725 82.1012 169.061 82.3359 169.456C82.5812 169.851 82.7039 170.347 82.7039 170.944ZM90.5251 177.84V174.176C90.5251 173.984 90.5305 173.76 90.5411 173.504C90.5518 173.248 90.5731 173.029 90.6051 172.848H90.5091C90.2638 173.211 89.9225 173.52 89.4851 173.776C89.0585 174.032 88.5038 174.16 87.8211 174.16C86.7865 174.16 85.9438 173.792 85.2931 173.056C84.6531 172.309 84.3331 171.2 84.3331 169.728C84.3331 168.256 84.6585 167.147 85.3091 166.4C85.9705 165.643 86.8238 165.264 87.8691 165.264C88.5411 165.264 89.0905 165.392 89.5171 165.648C89.9438 165.904 90.2851 166.219 90.5411 166.592H90.6051L90.8131 165.424H91.9331V177.84H90.5251ZM88.0931 172.992C88.9785 172.992 89.6025 172.752 89.9651 172.272C90.3385 171.781 90.5305 171.035 90.5411 170.032V169.744C90.5411 168.656 90.3598 167.835 89.9971 167.28C89.6345 166.715 88.9891 166.432 88.0611 166.432C87.2931 166.432 86.7225 166.736 86.3491 167.344C85.9758 167.941 85.7891 168.747 85.7891 169.76C85.7891 170.773 85.9758 171.568 86.3491 172.144C86.7331 172.709 87.3145 172.992 88.0931 172.992ZM96.0649 174H94.6569V161.84H96.0649V174Z" fill="#222222" fill-opacity="0.6"/>
</svg>
