<svg width="150" height="185" viewBox="0 0 150 185" fill="none" xmlns="http://www.w3.org/2000/svg">
<path d="M0 72.8723C0 32.6261 32.626 0 72.8723 0H77.1277C117.374 0 150 32.6261 150 72.8723C150 113.119 117.374 145.745 77.1277 145.745H72.8723C32.626 145.745 0 113.119 0 72.8723Z" fill="#24292E"/>
<path d="M136.942 40.95C136.923 40.8939 136.9 40.8391 136.874 40.7859C136.84 40.6821 136.797 40.5813 136.747 40.4843C136.707 40.424 136.664 40.3668 136.616 40.313C136.563 40.2338 136.505 40.158 136.443 40.0861C136.387 40.0331 136.317 39.9896 136.257 39.9414C136.188 39.8821 136.115 39.8273 136.04 39.7773L112.812 26.4045C112.519 26.2351 112.186 26.1459 111.847 26.1459C111.508 26.1459 111.175 26.2351 110.882 26.4045L87.6497 39.7845C87.5751 39.835 87.5042 39.8907 87.4373 39.951C87.3715 39.9952 87.3087 40.0436 87.2491 40.0958C87.1859 40.1664 87.1278 40.2413 87.0754 40.3202C87.0343 40.3781 86.9813 40.4288 86.9451 40.4915C86.8963 40.589 86.8543 40.6898 86.8196 40.7931C86.8003 40.8486 86.7689 40.8993 86.752 40.9572C86.7078 41.1209 86.6851 41.2896 86.6845 41.4591V66.8533L67.3275 77.9989V28.3084C67.3279 28.138 67.3052 27.9683 67.26 27.8041C67.2455 27.7462 67.2117 27.6955 67.1924 27.64C67.1587 27.537 67.1167 27.437 67.0669 27.3408C67.0331 27.278 66.9776 27.2274 66.9366 27.167C66.8836 27.0878 66.8255 27.0121 66.7629 26.9402C66.7027 26.8887 66.6399 26.8404 66.5747 26.7954C66.5071 26.7368 66.4362 26.682 66.3623 26.6314L43.1278 13.2586C42.8343 13.0892 42.5014 13 42.1626 13C41.8237 13 41.4908 13.0892 41.1974 13.2586L17.9676 26.6314C17.8922 26.6807 17.8212 26.7364 17.7553 26.7979C17.6887 26.842 17.6251 26.8904 17.5646 26.9426C17.5022 27.0132 17.445 27.0882 17.3933 27.167C17.3499 27.2274 17.2968 27.278 17.2606 27.3408C17.2112 27.4368 17.17 27.5369 17.1375 27.64C17.1112 27.6925 17.0878 27.7465 17.0676 27.8017C17.0232 27.9669 17.0005 28.1373 17 28.3084V107.864C16.9991 108.204 17.0878 108.538 17.2573 108.833C17.4268 109.127 17.671 109.371 17.9652 109.541L64.4151 136.287C64.5183 136.339 64.6257 136.382 64.736 136.417C64.7867 136.436 64.8349 136.465 64.888 136.48C65.2121 136.567 65.5533 136.567 65.8773 136.48C65.9256 136.468 65.9666 136.441 66.01 136.427C66.1265 136.39 66.2396 136.343 66.3479 136.287L112.812 109.541C113.106 109.371 113.351 109.127 113.52 108.833C113.69 108.538 113.778 108.204 113.777 107.864V82.4653L136.035 69.65C136.331 69.4791 136.576 69.2327 136.746 68.9359C136.915 68.6391 137.003 68.3027 137 67.9609V41.4543C137.001 41.2845 136.982 41.1151 136.942 40.95ZM42.1601 17.1701L61.5098 28.306L42.1577 39.4491L22.8105 28.3084L42.1601 17.1701ZM63.4547 31.6479V80.2261L52.2271 86.6904L44.0978 91.3716V42.8007L55.3254 36.3364L63.4547 31.6479ZM63.4547 131.251L20.8704 106.745V31.6576L28.9998 36.334L40.2249 42.8007V94.7232C40.2298 94.7962 40.2395 94.8687 40.2539 94.9404C40.2597 95.0361 40.2726 95.1313 40.2925 95.2251C40.317 95.2999 40.3477 95.3726 40.3842 95.4423C40.4111 95.5255 40.445 95.6062 40.4855 95.6836C40.5301 95.7491 40.5785 95.8119 40.6303 95.8718C40.6786 95.943 40.7318 96.0108 40.7896 96.0745C40.8451 96.1276 40.9151 96.1662 40.9754 96.2145C41.0413 96.2717 41.1106 96.3249 41.1829 96.3737L63.4282 108.965L63.4547 131.251ZM65.3851 105.632L46.0668 94.6967L66.3575 83.0155L88.6197 70.2001L107.955 81.3312L93.7666 89.4292L65.3851 105.632ZM109.909 106.735L67.3227 131.263V108.989L98.8652 90.988L109.909 84.678V106.735ZM109.909 77.9892L101.78 73.3249L90.5525 66.8606V44.8011L98.6818 49.4823L109.909 55.9515V77.9892ZM111.84 52.5854L92.4877 41.4446L111.84 30.3063L131.187 41.4422L111.84 52.5854ZM113.77 77.9892V55.9515L125.022 49.4823L133.149 44.8011V66.8533L113.77 77.9892Z" fill="white"/>
<path d="M11.552 176V164.576H12.992V174.72H17.984V176H11.552ZM22.9986 167.28C24.044 167.28 24.8173 167.509 25.3186 167.968C25.82 168.427 26.0706 169.157 26.0706 170.16V176H25.0466L24.7746 174.784H24.7106C24.3373 175.253 23.9426 175.6 23.5266 175.824C23.1213 176.048 22.556 176.16 21.8306 176.16C21.052 176.16 20.4066 175.957 19.8946 175.552C19.3826 175.136 19.1266 174.491 19.1266 173.616C19.1266 172.763 19.4626 172.107 20.1346 171.648C20.8066 171.179 21.8413 170.923 23.2386 170.88L24.6946 170.832V170.32C24.6946 169.605 24.54 169.109 24.2306 168.832C23.9213 168.555 23.484 168.416 22.9186 168.416C22.4706 168.416 22.044 168.485 21.6386 168.624C21.2333 168.752 20.8546 168.901 20.5026 169.072L20.0706 168.016C20.444 167.813 20.8866 167.643 21.3986 167.504C21.9106 167.355 22.444 167.28 22.9986 167.28ZM24.6786 171.808L23.4146 171.856C22.348 171.899 21.6066 172.069 21.1906 172.368C20.7853 172.667 20.5826 173.088 20.5826 173.632C20.5826 174.112 20.7266 174.464 21.0146 174.688C21.3133 174.912 21.692 175.024 22.1506 175.024C22.876 175.024 23.4786 174.827 23.9586 174.432C24.4386 174.027 24.6786 173.408 24.6786 172.576V171.808ZM32.7194 167.264C32.8794 167.264 33.05 167.275 33.2314 167.296C33.4234 167.307 33.5887 167.328 33.7274 167.36L33.5514 168.656C33.4127 168.624 33.258 168.597 33.0874 168.576C32.9274 168.555 32.7727 168.544 32.6234 168.544C32.186 168.544 31.7754 168.667 31.3914 168.912C31.0074 169.147 30.698 169.483 30.4634 169.92C30.2394 170.347 30.1274 170.848 30.1274 171.424V176H28.7194V167.424H29.8714L30.0314 168.992H30.0954C30.3727 168.523 30.73 168.117 31.1674 167.776C31.6047 167.435 32.122 167.264 32.7194 167.264ZM38.2643 167.28C39.3096 167.28 40.0829 167.509 40.5843 167.968C41.0856 168.427 41.3363 169.157 41.3363 170.16V176H40.3123L40.0403 174.784H39.9763C39.6029 175.253 39.2083 175.6 38.7923 175.824C38.3869 176.048 37.8216 176.16 37.0963 176.16C36.3176 176.16 35.6723 175.957 35.1603 175.552C34.6483 175.136 34.3923 174.491 34.3923 173.616C34.3923 172.763 34.7283 172.107 35.4003 171.648C36.0723 171.179 37.1069 170.923 38.5043 170.88L39.9603 170.832V170.32C39.9603 169.605 39.8056 169.109 39.4963 168.832C39.1869 168.555 38.7496 168.416 38.1843 168.416C37.7363 168.416 37.3096 168.485 36.9043 168.624C36.4989 168.752 36.1203 168.901 35.7682 169.072L35.3363 168.016C35.7096 167.813 36.1523 167.643 36.6643 167.504C37.1763 167.355 37.7096 167.28 38.2643 167.28ZM39.9443 171.808L38.6803 171.856C37.6136 171.899 36.8723 172.069 36.4563 172.368C36.0509 172.667 35.8483 173.088 35.8483 173.632C35.8483 174.112 35.9923 174.464 36.2803 174.688C36.5789 174.912 36.9576 175.024 37.4163 175.024C38.1416 175.024 38.7443 174.827 39.2243 174.432C39.7043 174.027 39.9443 173.408 39.9443 172.576V171.808ZM45.873 176L42.625 167.424H44.129L45.953 172.48C46.0383 172.715 46.129 172.976 46.225 173.264C46.321 173.552 46.4063 173.829 46.481 174.096C46.5557 174.352 46.609 174.571 46.641 174.752H46.705C46.7477 174.571 46.8063 174.347 46.881 174.08C46.9663 173.813 47.057 173.536 47.153 173.248C47.2597 172.96 47.3503 172.704 47.425 172.48L49.249 167.424H50.753L47.489 176H45.873ZM55.422 167.264C56.158 167.264 56.7873 167.424 57.31 167.744C57.8433 168.064 58.2487 168.517 58.526 169.104C58.814 169.68 58.958 170.357 58.958 171.136V171.984H53.086C53.1073 172.955 53.3527 173.696 53.822 174.208C54.302 174.709 54.9687 174.96 55.822 174.96C56.366 174.96 56.846 174.912 57.262 174.816C57.6887 174.709 58.126 174.56 58.574 174.368V175.6C58.1367 175.792 57.7047 175.931 57.278 176.016C56.8513 176.112 56.3447 176.16 55.758 176.16C54.9473 176.16 54.2273 175.995 53.598 175.664C52.9793 175.333 52.494 174.843 52.142 174.192C51.8007 173.531 51.63 172.725 51.63 171.776C51.63 170.837 51.7847 170.032 52.094 169.36C52.414 168.688 52.8567 168.171 53.422 167.808C53.998 167.445 54.6647 167.264 55.422 167.264ZM55.406 168.416C54.734 168.416 54.2007 168.635 53.806 169.072C53.422 169.499 53.1927 170.096 53.118 170.864H57.486C57.4753 170.139 57.3047 169.552 56.974 169.104C56.6433 168.645 56.1207 168.416 55.406 168.416ZM62.5493 176H61.1413V163.84H62.5493V176ZM72.9219 164.336H73.7969C72.4792 166.471 71.7552 168.76 71.625 171.203C71.6146 171.427 71.6094 171.646 71.6094 171.859C71.6094 174.344 72.2604 176.719 73.5625 178.984C73.6354 179.125 73.7135 179.26 73.7969 179.391H72.9219C71.7135 177.812 70.9141 176 70.5234 173.953C70.3828 173.229 70.3125 172.531 70.3125 171.859C70.3125 169.948 70.8073 168.036 71.7969 166.125C72.1302 165.474 72.5052 164.878 72.9219 164.336ZM78.8645 176V164.576H80.3045V174.72H85.2965V176H78.8645ZM94.2311 167.424V176H93.0791L92.8711 174.864H92.8071C92.5298 175.312 92.1458 175.643 91.6551 175.856C91.1645 176.059 90.6418 176.16 90.0871 176.16C89.0525 176.16 88.2738 175.915 87.7511 175.424C87.2285 174.923 86.9671 174.128 86.9671 173.04V167.424H88.3911V172.944C88.3911 174.309 89.0258 174.992 90.2951 174.992C91.2445 174.992 91.9005 174.725 92.2631 174.192C92.6365 173.659 92.8231 172.891 92.8231 171.888V167.424H94.2311ZM106.362 167.264C107.332 167.264 108.058 167.515 108.538 168.016C109.018 168.507 109.258 169.307 109.258 170.416V176H107.866V170.48C107.866 169.125 107.284 168.448 106.122 168.448C105.29 168.448 104.692 168.688 104.33 169.168C103.978 169.648 103.802 170.347 103.802 171.264V176H102.41V170.48C102.41 169.125 101.823 168.448 100.65 168.448C99.7858 168.448 99.1884 168.715 98.8578 169.248C98.5271 169.781 98.3618 170.549 98.3618 171.552V176H96.9538V167.424H98.0898L98.2978 168.592H98.3778C98.6444 168.144 99.0018 167.813 99.4498 167.6C99.9084 167.376 100.394 167.264 100.906 167.264C102.25 167.264 103.124 167.744 103.53 168.704H103.61C103.898 168.213 104.287 167.851 104.778 167.616C105.279 167.381 105.807 167.264 106.362 167.264ZM115.219 167.264C115.955 167.264 116.584 167.424 117.107 167.744C117.64 168.064 118.046 168.517 118.323 169.104C118.611 169.68 118.755 170.357 118.755 171.136V171.984H112.883C112.904 172.955 113.15 173.696 113.619 174.208C114.099 174.709 114.766 174.96 115.619 174.96C116.163 174.96 116.643 174.912 117.059 174.816C117.486 174.709 117.923 174.56 118.371 174.368V175.6C117.934 175.792 117.502 175.931 117.075 176.016C116.648 176.112 116.142 176.16 115.555 176.16C114.744 176.16 114.024 175.995 113.395 175.664C112.776 175.333 112.291 174.843 111.939 174.192C111.598 173.531 111.427 172.725 111.427 171.776C111.427 170.837 111.582 170.032 111.891 169.36C112.211 168.688 112.654 168.171 113.219 167.808C113.795 167.445 114.462 167.264 115.219 167.264ZM115.203 168.416C114.531 168.416 113.998 168.635 113.603 169.072C113.219 169.499 112.99 170.096 112.915 170.864H117.283C117.272 170.139 117.102 169.552 116.771 169.104C116.44 168.645 115.918 168.416 115.203 168.416ZM125.066 167.264C126.09 167.264 126.863 167.515 127.386 168.016C127.909 168.507 128.17 169.307 128.17 170.416V176H126.778V170.512C126.778 169.136 126.138 168.448 124.858 168.448C123.909 168.448 123.253 168.715 122.89 169.248C122.527 169.781 122.346 170.549 122.346 171.552V176H120.938V167.424H122.074L122.282 168.592H122.362C122.639 168.144 123.023 167.813 123.514 167.6C124.005 167.376 124.522 167.264 125.066 167.264ZM133.867 179.391H132.984C134.307 177.255 135.034 174.969 135.164 172.531C135.174 172.307 135.18 172.089 135.18 171.875C135.18 169.385 134.529 167.005 133.227 164.734C133.148 164.599 133.068 164.466 132.984 164.336H133.867C135.07 165.914 135.87 167.727 136.266 169.773C136.401 170.503 136.469 171.203 136.469 171.875C136.469 173.781 135.974 175.688 134.984 177.594C134.656 178.245 134.284 178.844 133.867 179.391Z" fill="#222222" fill-opacity="0.6"/>
</svg>
