<svg width="150" height="185" viewBox="0 0 150 185" fill="none" xmlns="http://www.w3.org/2000/svg">
<path d="M0 75C0 116.421 33.5786 150 75 150C116.421 150 150 116.421 150 75C150 33.5786 116.421 0 75 0C33.5786 0 0 33.5786 0 75Z" fill="#24292E"/>
<path d="M18 83.4114V101.21C18 111.034 43.2838 119 74.5 119V101.21C43.2838 101.21 18 93.2258 18 83.4209V83.4114ZM118.683 94.4996L74.5 83.4114V101.21L118.683 112.299C126.386 109.257 131 105.407 131 101.21V83.4114C131 87.6033 126.386 91.4531 118.683 94.4996ZM74.5 65.6266V83.4114C43.2979 83.4114 18 75.441 18 65.6171V47.7895C18 37.9799 43.2838 30 74.5 30C105.693 30 131 37.9846 131 47.7943V65.6171C131 69.8138 126.386 73.6493 118.683 76.71L74.5 65.6124V65.6266Z" fill="white"/>
<path d="M47.448 165.68C46.2213 165.68 45.256 166.091 44.552 166.912C43.848 167.733 43.496 168.859 43.496 170.288C43.496 171.707 43.8213 172.832 44.472 173.664C45.1333 174.485 46.12 174.896 47.432 174.896C47.9333 174.896 48.408 174.853 48.856 174.768C49.304 174.683 49.7413 174.576 50.168 174.448V175.696C49.7413 175.856 49.2987 175.973 48.84 176.048C48.392 176.123 47.8533 176.16 47.224 176.16C46.0613 176.16 45.0907 175.92 44.312 175.44C43.5333 174.96 42.9467 174.277 42.552 173.392C42.168 172.507 41.976 171.467 41.976 170.272C41.976 169.12 42.184 168.107 42.6 167.232C43.0267 166.347 43.6507 165.659 44.472 165.168C45.2933 164.667 46.2907 164.416 47.464 164.416C48.6693 164.416 49.72 164.64 50.616 165.088L50.04 166.304C49.688 166.144 49.2933 166 48.856 165.872C48.4293 165.744 47.96 165.68 47.448 165.68ZM55.7174 167.28C56.7627 167.28 57.536 167.509 58.0374 167.968C58.5387 168.427 58.7894 169.157 58.7894 170.16V176H57.7654L57.4934 174.784H57.4294C57.056 175.253 56.6614 175.6 56.2454 175.824C55.84 176.048 55.2747 176.16 54.5494 176.16C53.7707 176.16 53.1254 175.957 52.6134 175.552C52.1014 175.136 51.8454 174.491 51.8454 173.616C51.8454 172.763 52.1814 172.107 52.8534 171.648C53.5254 171.179 54.56 170.923 55.9574 170.88L57.4134 170.832V170.32C57.4134 169.605 57.2587 169.109 56.9494 168.832C56.64 168.555 56.2027 168.416 55.6374 168.416C55.1894 168.416 54.7627 168.485 54.3574 168.624C53.952 168.752 53.5734 168.901 53.2214 169.072L52.7894 168.016C53.1627 167.813 53.6054 167.643 54.1174 167.504C54.6294 167.355 55.1627 167.28 55.7174 167.28ZM57.3974 171.808L56.1334 171.856C55.0667 171.899 54.3254 172.069 53.9094 172.368C53.504 172.667 53.3014 173.088 53.3014 173.632C53.3014 174.112 53.4454 174.464 53.7334 174.688C54.032 174.912 54.4107 175.024 54.8694 175.024C55.5947 175.024 56.1974 174.827 56.6774 174.432C57.1574 174.027 57.3974 173.408 57.3974 172.576V171.808ZM62.8301 163.84V170.192C62.8301 170.363 62.8195 170.587 62.7981 170.864C62.7875 171.141 62.7768 171.381 62.7661 171.584H62.8301C62.8941 171.499 62.9901 171.376 63.1181 171.216C63.2461 171.056 63.3741 170.896 63.5021 170.736C63.6408 170.565 63.7581 170.427 63.8541 170.32L66.5901 167.424H68.2381L64.7661 171.088L68.4781 176H66.7821L63.8061 172L62.8301 172.848V176H61.4381V163.84H62.8301ZM73.297 167.264C74.033 167.264 74.6623 167.424 75.185 167.744C75.7183 168.064 76.1237 168.517 76.401 169.104C76.689 169.68 76.833 170.357 76.833 171.136V171.984H70.961C70.9823 172.955 71.2277 173.696 71.697 174.208C72.177 174.709 72.8437 174.96 73.697 174.96C74.241 174.96 74.721 174.912 75.137 174.816C75.5637 174.709 76.001 174.56 76.449 174.368V175.6C76.0117 175.792 75.5797 175.931 75.153 176.016C74.7263 176.112 74.2197 176.16 73.633 176.16C72.8223 176.16 72.1023 175.995 71.473 175.664C70.8543 175.333 70.369 174.843 70.017 174.192C69.6757 173.531 69.505 172.725 69.505 171.776C69.505 170.837 69.6597 170.032 69.969 169.36C70.289 168.688 70.7317 168.171 71.297 167.808C71.873 167.445 72.5397 167.264 73.297 167.264ZM73.281 168.416C72.609 168.416 72.0757 168.635 71.681 169.072C71.297 169.499 71.0677 170.096 70.993 170.864H75.361C75.3503 170.139 75.1797 169.552 74.849 169.104C74.5183 168.645 73.9957 168.416 73.281 168.416ZM82.2323 164.576C83.7256 164.576 84.8136 164.869 85.4963 165.456C86.1789 166.043 86.5203 166.869 86.5203 167.936C86.5203 168.565 86.3763 169.157 86.0883 169.712C85.8109 170.256 85.3363 170.699 84.6643 171.04C84.0029 171.381 83.1016 171.552 81.9603 171.552H80.6483V176H79.2083V164.576H82.2323ZM82.1043 165.808H80.6483V170.32H81.8003C82.8883 170.32 83.6989 170.144 84.2323 169.792C84.7656 169.44 85.0323 168.843 85.0323 168C85.0323 167.264 84.7976 166.715 84.3283 166.352C83.8589 165.989 83.1176 165.808 82.1043 165.808ZM97.6318 176H96.1918V170.672H90.3358V176H88.8958V164.576H90.3358V169.408H96.1918V164.576H97.6318V176ZM103.779 164.576C105.272 164.576 106.36 164.869 107.043 165.456C107.726 166.043 108.067 166.869 108.067 167.936C108.067 168.565 107.923 169.157 107.635 169.712C107.358 170.256 106.883 170.699 106.211 171.04C105.55 171.381 104.648 171.552 103.507 171.552H102.195V176H100.755V164.576H103.779ZM103.651 165.808H102.195V170.32H103.347C104.435 170.32 105.246 170.144 105.779 169.792C106.312 169.44 106.579 168.843 106.579 168C106.579 167.264 106.344 166.715 105.875 166.352C105.406 165.989 104.664 165.808 103.651 165.808Z" fill="#222222" fill-opacity="0.6"/>
</svg>
