<svg width="50" height="53" viewBox="0 0 50 53" fill="none" xmlns="http://www.w3.org/2000/svg">
<path d="M47.3045 0H2.80254C1.73232 0 0.867676 0.936697 0.867676 2.0961V50.3065C0.867676 51.4659 1.73232 52.4026 2.80254 52.4026H47.3045C48.3747 52.4026 49.2393 51.4659 49.2393 50.3065V2.0961C49.2393 0.936697 48.3747 0 47.3045 0ZM15.2159 44.6536H8.03877V19.6444H15.2159V44.6536ZM11.6304 16.2252C10.8076 16.2252 10.0033 15.9609 9.31922 15.4657C8.63511 14.9705 8.10192 14.2666 7.78706 13.4431C7.47221 12.6197 7.38983 11.7135 7.55034 10.8393C7.71085 9.96514 8.10705 9.16213 8.68883 8.53187C9.27061 7.90161 10.0118 7.47239 10.8188 7.2985C11.6258 7.12461 12.4622 7.21386 13.2223 7.55496C13.9825 7.89605 14.6321 8.47368 15.0893 9.21479C15.5464 9.9559 15.7903 10.8272 15.7903 11.7185C15.7843 14.2077 13.922 16.2252 11.6304 16.2252ZM42.0864 44.6536H34.9153V32.4896C34.9153 29.5878 34.8669 25.8607 31.1846 25.8607C27.4539 25.8607 26.8795 29.018 26.8795 32.28V44.6536H19.7145V19.6444H26.5953V23.0637H26.6921C27.6474 21.0986 29.9874 19.0222 33.4823 19.0222C40.7501 19.0222 42.0864 24.2035 42.0864 30.9372V44.6536Z" fill="#0073B0"/>
</svg>
