<svg width="67" height="54" viewBox="0 0 67 54" fill="none" xmlns="http://www.w3.org/2000/svg">
<path d="M66.3709 6.32337C63.9522 7.39583 61.3534 8.12065 58.6256 8.44673C61.4101 6.77782 63.5481 4.13504 64.5548 0.986197C61.9078 2.55699 59.0118 3.66371 55.9918 4.25854C53.5318 1.63784 50.0274 0 46.1486 0C38.7011 0 32.663 6.03786 32.663 13.4848C32.663 14.5418 32.7824 15.5709 33.0122 16.5581C21.8048 15.9956 11.8684 10.6271 5.21718 2.46844C4.05664 4.46009 3.39165 6.7768 3.39165 9.24781C3.39165 13.9264 5.77254 18.0537 9.39073 20.4721C7.24926 20.4051 5.15491 19.8267 3.28252 18.7852C3.28175 18.8417 3.28175 18.8982 3.28175 18.955C3.28175 25.4886 7.93005 30.939 14.0989 32.1778C12.1131 32.7179 10.0301 32.7969 8.00913 32.4089C9.72503 37.7664 14.7053 41.665 20.6061 41.7741C15.9909 45.3907 10.1761 47.5467 3.85843 47.5467C2.76978 47.5467 1.69655 47.4828 0.641541 47.3582C6.6093 51.1844 13.6975 53.4169 21.3129 53.4169C46.1173 53.4169 59.6809 32.8685 59.6809 15.0487C59.6809 14.4638 59.668 13.8822 59.6418 13.304C62.2819 11.3955 64.5605 9.03166 66.3709 6.32337Z" fill="#55ACEE"/>
</svg>
